<svg width="16" height="16" viewBox="0 0 16 16" fill="none" xmlns="http://www.w3.org/2000/svg">
<path d="M8.00002 13.05C7.91113 13.05 7.82779 13.0362 7.75002 13.0087C7.67224 12.9811 7.60002 12.9338 7.53335 12.8667L3.13335 8.46666C3.00002 8.33333 2.93335 8.17511 2.93335 7.992C2.93335 7.80889 3.00002 7.65044 3.13335 7.51666C3.26668 7.38333 3.42224 7.31666 3.60002 7.31666C3.77779 7.31666 3.93335 7.38333 4.06668 7.51666L7.33335 10.7833L7.33335 3.31666C7.33335 3.12778 7.39735 2.97222 7.52535 2.85C7.65335 2.72778 7.81157 2.66666 8.00002 2.66666C8.18891 2.66666 8.34735 2.73066 8.47535 2.85866C8.60335 2.98666 8.66713 3.14489 8.66668 3.33333V10.7833L11.9333 7.51666C12.0667 7.38333 12.2222 7.31666 12.4 7.31666C12.5778 7.31666 12.7333 7.38333 12.8667 7.51666C13 7.65 13.0667 7.80844 13.0667 7.992C13.0667 8.17555 13 8.33377 12.8667 8.46666L8.46668 12.8667C8.40002 12.9333 8.32779 12.9807 8.25002 13.0087C8.17224 13.0367 8.08891 13.0504 8.00002 13.05Z" fill="#D02626"/>
</svg>
