<svg width="16" height="16" viewBox="0 0 16 16" fill="none" xmlns="http://www.w3.org/2000/svg">
<path d="M7.99998 2.95C8.08887 2.95 8.17221 2.96378 8.24998 2.99134C8.32776 3.01889 8.39998 3.06623 8.46665 3.13334L12.8667 7.53334C13 7.66667 13.0667 7.82489 13.0667 8.008C13.0667 8.19111 13 8.34956 12.8667 8.48334C12.7333 8.61667 12.5778 8.68334 12.4 8.68334C12.2222 8.68334 12.0667 8.61667 11.9333 8.48334L8.66665 5.21667L8.66665 12.6833C8.66665 12.8722 8.60265 13.0278 8.47465 13.15C8.34665 13.2722 8.18843 13.3333 7.99998 13.3333C7.81109 13.3333 7.65265 13.2693 7.52465 13.1413C7.39665 13.0133 7.33287 12.8551 7.33332 12.6667L7.33332 5.21667L4.06665 8.48334C3.93332 8.61667 3.77776 8.68333 3.59998 8.68333C3.42221 8.68333 3.26665 8.61667 3.13332 8.48334C2.99998 8.35 2.93332 8.19156 2.93332 8.008C2.93332 7.82445 2.99998 7.66622 3.13332 7.53334L7.53332 3.13334C7.59999 3.06667 7.67221 3.01934 7.74998 2.99134C7.82776 2.96334 7.9111 2.94956 7.99998 2.95Z" fill="#1EB564"/>
</svg>
