<svg width="598" height="233" viewBox="0 0 598 233" fill="none" xmlns="http://www.w3.org/2000/svg">
<path d="M11.895 5.601H17.5045L17.472 6.641H12.922L12.6815 9.6765C12.9935 9.38617 13.3337 9.18033 13.702 9.059C14.0747 8.93333 14.4777 8.8705 14.911 8.8705C15.4787 8.8705 16.0009 8.9875 16.4775 9.2215C16.9585 9.45117 17.3442 9.7935 17.6345 10.2485C17.9249 10.6992 18.07 11.2582 18.07 11.9255C18.07 12.5755 17.9292 13.141 17.6475 13.622C17.3659 14.103 16.9694 14.4778 16.458 14.7465C15.9467 15.0108 15.3465 15.143 14.6575 15.143C14.0769 15.143 13.5395 15.0412 13.0455 14.8375C12.5515 14.6338 12.1269 14.35 11.7715 13.986C11.4205 13.622 11.1627 13.2038 10.998 12.7315L12.038 12.296C12.194 12.6513 12.389 12.9677 12.623 13.245C12.8614 13.5223 13.143 13.739 13.468 13.895C13.793 14.051 14.1614 14.129 14.573 14.129C15.2404 14.129 15.7755 13.9362 16.1785 13.5505C16.5859 13.1605 16.7895 12.6318 16.7895 11.9645C16.7895 11.5485 16.6942 11.1867 16.5035 10.879C16.3129 10.567 16.055 10.3243 15.73 10.151C15.4094 9.97767 15.054 9.891 14.664 9.891C14.4084 9.891 14.17 9.91483 13.949 9.9625C13.728 10.0058 13.5092 10.0925 13.2925 10.2225C13.0759 10.3525 12.8484 10.5497 12.61 10.814C12.584 10.827 12.5645 10.8335 12.5515 10.8335C12.5385 10.8292 12.5169 10.8205 12.4865 10.8075L11.4725 10.489L11.895 5.601ZM22.6866 5.471C23.705 5.471 24.5153 5.8805 25.1176 6.6995C25.7243 7.51417 26.0276 8.721 26.0276 10.32C26.0276 11.9103 25.7265 13.1128 25.1241 13.9275C24.5218 14.7378 23.705 15.143 22.6736 15.143C21.6466 15.143 20.832 14.74 20.2296 13.934C19.6273 13.1237 19.3261 11.9255 19.3261 10.3395C19.3261 9.26917 19.4648 8.37217 19.7421 7.6485C20.0195 6.92483 20.4095 6.381 20.9121 6.017C21.4148 5.653 22.0063 5.471 22.6866 5.471ZM22.6866 14.103C23.3583 14.103 23.8653 13.8083 24.2076 13.219C24.5543 12.6253 24.7276 11.6612 24.7276 10.3265C24.7276 8.96583 24.5521 7.9865 24.2011 7.3885C23.8545 6.78617 23.3475 6.485 22.6801 6.485C22.0171 6.485 21.5058 6.78833 21.1461 7.395C20.7908 7.99733 20.6131 8.9745 20.6131 10.3265C20.6131 11.6568 20.7908 12.6188 21.1461 13.2125C21.5015 13.8062 22.015 14.103 22.6866 14.103ZM33.5586 15H32.2846L30.1786 11.6265L28.8526 12.998V15H27.6566V5.341H28.8526V11.6395L32.0116 8.279H33.3896L30.9651 10.84L33.5586 15Z" fill="#4B465C"/>
<path d="M11.895 5.601H17.5045L17.472 6.641H12.922L12.6815 9.6765C12.9935 9.38617 13.3337 9.18033 13.702 9.059C14.0747 8.93333 14.4777 8.8705 14.911 8.8705C15.4787 8.8705 16.0009 8.9875 16.4775 9.2215C16.9585 9.45117 17.3442 9.7935 17.6345 10.2485C17.9249 10.6992 18.07 11.2582 18.07 11.9255C18.07 12.5755 17.9292 13.141 17.6475 13.622C17.3659 14.103 16.9694 14.4778 16.458 14.7465C15.9467 15.0108 15.3465 15.143 14.6575 15.143C14.0769 15.143 13.5395 15.0412 13.0455 14.8375C12.5515 14.6338 12.1269 14.35 11.7715 13.986C11.4205 13.622 11.1627 13.2038 10.998 12.7315L12.038 12.296C12.194 12.6513 12.389 12.9677 12.623 13.245C12.8614 13.5223 13.143 13.739 13.468 13.895C13.793 14.051 14.1614 14.129 14.573 14.129C15.2404 14.129 15.7755 13.9362 16.1785 13.5505C16.5859 13.1605 16.7895 12.6318 16.7895 11.9645C16.7895 11.5485 16.6942 11.1867 16.5035 10.879C16.3129 10.567 16.055 10.3243 15.73 10.151C15.4094 9.97767 15.054 9.891 14.664 9.891C14.4084 9.891 14.17 9.91483 13.949 9.9625C13.728 10.0058 13.5092 10.0925 13.2925 10.2225C13.0759 10.3525 12.8484 10.5497 12.61 10.814C12.584 10.827 12.5645 10.8335 12.5515 10.8335C12.5385 10.8292 12.5169 10.8205 12.4865 10.8075L11.4725 10.489L11.895 5.601ZM22.6866 5.471C23.705 5.471 24.5153 5.8805 25.1176 6.6995C25.7243 7.51417 26.0276 8.721 26.0276 10.32C26.0276 11.9103 25.7265 13.1128 25.1241 13.9275C24.5218 14.7378 23.705 15.143 22.6736 15.143C21.6466 15.143 20.832 14.74 20.2296 13.934C19.6273 13.1237 19.3261 11.9255 19.3261 10.3395C19.3261 9.26917 19.4648 8.37217 19.7421 7.6485C20.0195 6.92483 20.4095 6.381 20.9121 6.017C21.4148 5.653 22.0063 5.471 22.6866 5.471ZM22.6866 14.103C23.3583 14.103 23.8653 13.8083 24.2076 13.219C24.5543 12.6253 24.7276 11.6612 24.7276 10.3265C24.7276 8.96583 24.5521 7.9865 24.2011 7.3885C23.8545 6.78617 23.3475 6.485 22.6801 6.485C22.0171 6.485 21.5058 6.78833 21.1461 7.395C20.7908 7.99733 20.6131 8.9745 20.6131 10.3265C20.6131 11.6568 20.7908 12.6188 21.1461 13.2125C21.5015 13.8062 22.015 14.103 22.6866 14.103ZM33.5586 15H32.2846L30.1786 11.6265L28.8526 12.998V15H27.6566V5.341H28.8526V11.6395L32.0116 8.279H33.3896L30.9651 10.84L33.5586 15Z" fill="white" fill-opacity="0.5"/>
<path d="M15.2487 42.201H16.4707V48.142H18.0307V49.2015H16.4707V51.6H15.2942V49.2015H10.8677V48.103L15.2487 42.201ZM12.0182 48.142H15.2682V43.7805L12.0182 48.142ZM22.4235 42.071C23.4418 42.071 24.2521 42.4805 24.8545 43.2995C25.4611 44.1141 25.7645 45.321 25.7645 46.92C25.7645 48.5103 25.4633 49.7128 24.861 50.5275C24.2586 51.3378 23.4418 51.743 22.4105 51.743C21.3835 51.743 20.5688 51.34 19.9665 50.534C19.3641 49.7236 19.063 48.5255 19.063 46.9395C19.063 45.8691 19.2016 44.9721 19.479 44.2485C19.7563 43.5248 20.1463 42.981 20.649 42.617C21.1516 42.253 21.7431 42.071 22.4235 42.071ZM22.4235 50.703C23.0951 50.703 23.6021 50.4083 23.9445 49.819C24.2911 49.2253 24.4645 48.2611 24.4645 46.9265C24.4645 45.5658 24.289 44.5865 23.938 43.9885C23.5913 43.3861 23.0843 43.085 22.417 43.085C21.754 43.085 21.2426 43.3883 20.883 43.995C20.5276 44.5973 20.35 45.5745 20.35 46.9265C20.35 48.2568 20.5276 49.2188 20.883 49.8125C21.2383 50.4061 21.7518 50.703 22.4235 50.703ZM33.2954 51.6H32.0214L29.9154 48.2265L28.5894 49.598V51.6H27.3934V41.941H28.5894V48.2395L31.7484 44.879H33.1264L30.7019 47.44L33.2954 51.6Z" fill="#4B465C"/>
<path d="M15.2487 42.201H16.4707V48.142H18.0307V49.2015H16.4707V51.6H15.2942V49.2015H10.8677V48.103L15.2487 42.201ZM12.0182 48.142H15.2682V43.7805L12.0182 48.142ZM22.4235 42.071C23.4418 42.071 24.2521 42.4805 24.8545 43.2995C25.4611 44.1141 25.7645 45.321 25.7645 46.92C25.7645 48.5103 25.4633 49.7128 24.861 50.5275C24.2586 51.3378 23.4418 51.743 22.4105 51.743C21.3835 51.743 20.5688 51.34 19.9665 50.534C19.3641 49.7236 19.063 48.5255 19.063 46.9395C19.063 45.8691 19.2016 44.9721 19.479 44.2485C19.7563 43.5248 20.1463 42.981 20.649 42.617C21.1516 42.253 21.7431 42.071 22.4235 42.071ZM22.4235 50.703C23.0951 50.703 23.6021 50.4083 23.9445 49.819C24.2911 49.2253 24.4645 48.2611 24.4645 46.9265C24.4645 45.5658 24.289 44.5865 23.938 43.9885C23.5913 43.3861 23.0843 43.085 22.417 43.085C21.754 43.085 21.2426 43.3883 20.883 43.995C20.5276 44.5973 20.35 45.5745 20.35 46.9265C20.35 48.2568 20.5276 49.2188 20.883 49.8125C21.2383 50.4061 21.7518 50.703 22.4235 50.703ZM33.2954 51.6H32.0214L29.9154 48.2265L28.5894 49.598V51.6H27.3934V41.941H28.5894V48.2395L31.7484 44.879H33.1264L30.7019 47.44L33.2954 51.6Z" fill="white" fill-opacity="0.5"/>
<path d="M11.0488 81.5375C11.0488 80.9308 11.1961 80.4152 11.4908 79.9905C11.7854 79.5615 12.1776 79.2343 12.6673 79.009C13.1613 78.7837 13.7051 78.671 14.2988 78.671C14.9488 78.671 15.5229 78.7663 16.0213 78.957C16.5196 79.1433 16.9096 79.4163 17.1913 79.776C17.4729 80.1357 17.6138 80.5755 17.6138 81.0955C17.6138 81.5592 17.4664 81.9795 17.1718 82.3565C16.8771 82.7292 16.4264 83.0217 15.8198 83.234C16.2314 83.3467 16.5911 83.5113 16.8988 83.728C17.2064 83.9447 17.4448 84.2112 17.6138 84.5275C17.7828 84.8395 17.8673 85.1992 17.8673 85.6065C17.8673 86.0355 17.7763 86.4212 17.5943 86.7635C17.4166 87.1015 17.1653 87.3897 16.8403 87.628C16.5153 87.862 16.1318 88.0418 15.6898 88.1675C15.2478 88.2888 14.7668 88.3473 14.2468 88.343C13.6011 88.3387 13.0313 88.2195 12.5373 87.9855C12.0476 87.7515 11.6619 87.4243 11.3803 87.004C11.0986 86.5793 10.9469 86.0767 10.9253 85.496H12.1278C12.2188 86.081 12.4571 86.5295 12.8428 86.8415C13.2284 87.1535 13.7116 87.3095 14.2923 87.3095C14.7516 87.3095 15.1524 87.238 15.4948 87.095C15.8371 86.9477 16.1014 86.7462 16.2878 86.4905C16.4741 86.2348 16.5673 85.9358 16.5673 85.5935C16.5673 85.2165 16.4633 84.898 16.2553 84.638C16.0473 84.378 15.7634 84.1808 15.4038 84.0465C15.0441 83.9078 14.6433 83.8363 14.2013 83.832L13.3563 83.8125V82.792L14.1623 82.7725C14.5739 82.7638 14.9423 82.6858 15.2673 82.5385C15.5923 82.3868 15.8479 82.1897 16.0343 81.947C16.2249 81.7 16.3203 81.4292 16.3203 81.1345C16.3203 80.8745 16.2401 80.634 16.0798 80.413C15.9194 80.1877 15.6876 80.0078 15.3843 79.8735C15.0853 79.7392 14.7213 79.672 14.2923 79.672C13.9543 79.672 13.6314 79.7392 13.3238 79.8735C13.0161 80.0035 12.7626 80.205 12.5633 80.478C12.3639 80.751 12.2578 81.1042 12.2448 81.5375H11.0488ZM22.3854 78.671C23.4037 78.671 24.214 79.0805 24.8164 79.8995C25.423 80.7142 25.7264 81.921 25.7264 83.52C25.7264 85.1103 25.4252 86.3128 24.8229 87.1275C24.2205 87.9378 23.4037 88.343 22.3724 88.343C21.3454 88.343 20.5307 87.94 19.9284 87.134C19.326 86.3237 19.0249 85.1255 19.0249 83.5395C19.0249 82.4692 19.1635 81.5722 19.4409 80.8485C19.7182 80.1248 20.1082 79.581 20.6109 79.217C21.1135 78.853 21.705 78.671 22.3854 78.671ZM22.3854 87.303C23.057 87.303 23.564 87.0083 23.9064 86.419C24.253 85.8253 24.4264 84.8612 24.4264 83.5265C24.4264 82.1658 24.2509 81.1865 23.8999 80.5885C23.5532 79.9862 23.0462 79.685 22.3789 79.685C21.7159 79.685 21.2045 79.9883 20.8449 80.595C20.4895 81.1973 20.3119 82.1745 20.3119 83.5265C20.3119 84.8568 20.4895 85.8188 20.8449 86.4125C21.2002 87.0062 21.7137 87.303 22.3854 87.303ZM33.2573 88.2H31.9833L29.8773 84.8265L28.5513 86.198V88.2H27.3553V78.541H28.5513V84.8395L31.7103 81.479H33.0883L30.6638 84.04L33.2573 88.2Z" fill="#4B465C"/>
<path d="M11.0488 81.5375C11.0488 80.9308 11.1961 80.4152 11.4908 79.9905C11.7854 79.5615 12.1776 79.2343 12.6673 79.009C13.1613 78.7837 13.7051 78.671 14.2988 78.671C14.9488 78.671 15.5229 78.7663 16.0213 78.957C16.5196 79.1433 16.9096 79.4163 17.1913 79.776C17.4729 80.1357 17.6138 80.5755 17.6138 81.0955C17.6138 81.5592 17.4664 81.9795 17.1718 82.3565C16.8771 82.7292 16.4264 83.0217 15.8198 83.234C16.2314 83.3467 16.5911 83.5113 16.8988 83.728C17.2064 83.9447 17.4448 84.2112 17.6138 84.5275C17.7828 84.8395 17.8673 85.1992 17.8673 85.6065C17.8673 86.0355 17.7763 86.4212 17.5943 86.7635C17.4166 87.1015 17.1653 87.3897 16.8403 87.628C16.5153 87.862 16.1318 88.0418 15.6898 88.1675C15.2478 88.2888 14.7668 88.3473 14.2468 88.343C13.6011 88.3387 13.0313 88.2195 12.5373 87.9855C12.0476 87.7515 11.6619 87.4243 11.3803 87.004C11.0986 86.5793 10.9469 86.0767 10.9253 85.496H12.1278C12.2188 86.081 12.4571 86.5295 12.8428 86.8415C13.2284 87.1535 13.7116 87.3095 14.2923 87.3095C14.7516 87.3095 15.1524 87.238 15.4948 87.095C15.8371 86.9477 16.1014 86.7462 16.2878 86.4905C16.4741 86.2348 16.5673 85.9358 16.5673 85.5935C16.5673 85.2165 16.4633 84.898 16.2553 84.638C16.0473 84.378 15.7634 84.1808 15.4038 84.0465C15.0441 83.9078 14.6433 83.8363 14.2013 83.832L13.3563 83.8125V82.792L14.1623 82.7725C14.5739 82.7638 14.9423 82.6858 15.2673 82.5385C15.5923 82.3868 15.8479 82.1897 16.0343 81.947C16.2249 81.7 16.3203 81.4292 16.3203 81.1345C16.3203 80.8745 16.2401 80.634 16.0798 80.413C15.9194 80.1877 15.6876 80.0078 15.3843 79.8735C15.0853 79.7392 14.7213 79.672 14.2923 79.672C13.9543 79.672 13.6314 79.7392 13.3238 79.8735C13.0161 80.0035 12.7626 80.205 12.5633 80.478C12.3639 80.751 12.2578 81.1042 12.2448 81.5375H11.0488ZM22.3854 78.671C23.4037 78.671 24.214 79.0805 24.8164 79.8995C25.423 80.7142 25.7264 81.921 25.7264 83.52C25.7264 85.1103 25.4252 86.3128 24.8229 87.1275C24.2205 87.9378 23.4037 88.343 22.3724 88.343C21.3454 88.343 20.5307 87.94 19.9284 87.134C19.326 86.3237 19.0249 85.1255 19.0249 83.5395C19.0249 82.4692 19.1635 81.5722 19.4409 80.8485C19.7182 80.1248 20.1082 79.581 20.6109 79.217C21.1135 78.853 21.705 78.671 22.3854 78.671ZM22.3854 87.303C23.057 87.303 23.564 87.0083 23.9064 86.419C24.253 85.8253 24.4264 84.8612 24.4264 83.5265C24.4264 82.1658 24.2509 81.1865 23.8999 80.5885C23.5532 79.9862 23.0462 79.685 22.3789 79.685C21.7159 79.685 21.2045 79.9883 20.8449 80.595C20.4895 81.1973 20.3119 82.1745 20.3119 83.5265C20.3119 84.8568 20.4895 85.8188 20.8449 86.4125C21.2002 87.0062 21.7137 87.303 22.3854 87.303ZM33.2573 88.2H31.9833L29.8773 84.8265L28.5513 86.198V88.2H27.3553V78.541H28.5513V84.8395L31.7103 81.479H33.0883L30.6638 84.04L33.2573 88.2Z" fill="white" fill-opacity="0.5"/>
<path d="M11.285 124.8V124.065V123.682C11.285 123.201 11.3738 122.785 11.5515 122.434C11.7335 122.083 11.9718 121.777 12.2665 121.517C12.5655 121.253 12.8905 121.017 13.2415 120.809C13.5968 120.601 13.95 120.402 14.301 120.211C14.6563 120.016 14.9813 119.814 15.276 119.606C15.5707 119.394 15.8068 119.156 15.9845 118.891C16.1665 118.623 16.2575 118.306 16.2575 117.942C16.2575 117.466 16.0885 117.078 15.7505 116.779C15.4168 116.48 14.964 116.33 14.392 116.33C13.7767 116.33 13.2827 116.504 12.91 116.85C12.5373 117.197 12.3272 117.659 12.2795 118.235H11.0835C11.0965 117.693 11.2308 117.199 11.4865 116.753C11.7422 116.302 12.117 115.943 12.611 115.674C13.105 115.405 13.7138 115.271 14.4375 115.271C15.0658 115.271 15.6118 115.384 16.0755 115.609C16.5392 115.83 16.8967 116.142 17.148 116.545C17.4037 116.944 17.5315 117.409 17.5315 117.942C17.5315 118.428 17.4427 118.844 17.265 119.19C17.0873 119.537 16.8512 119.838 16.5565 120.094C16.2662 120.345 15.9477 120.571 15.601 120.77C15.2543 120.969 14.9055 121.162 14.5545 121.348C14.2035 121.53 13.8828 121.723 13.5925 121.927C13.3022 122.126 13.0682 122.356 12.8905 122.616C12.7128 122.876 12.624 123.186 12.624 123.545V123.734H17.5835V124.8H11.285ZM22.2076 115.271C23.226 115.271 24.0363 115.68 24.6386 116.499C25.2453 117.314 25.5486 118.521 25.5486 120.12C25.5486 121.71 25.2475 122.913 24.6451 123.727C24.0428 124.538 23.226 124.943 22.1946 124.943C21.1676 124.943 20.353 124.54 19.7506 123.734C19.1483 122.924 18.8471 121.725 18.8471 120.139C18.8471 119.069 18.9858 118.172 19.2631 117.448C19.5405 116.725 19.9305 116.181 20.4331 115.817C20.9358 115.453 21.5273 115.271 22.2076 115.271ZM22.2076 123.903C22.8793 123.903 23.3863 123.608 23.7286 123.019C24.0753 122.425 24.2486 121.461 24.2486 120.126C24.2486 118.766 24.0731 117.786 23.7221 117.188C23.3755 116.586 22.8685 116.285 22.2011 116.285C21.5381 116.285 21.0268 116.588 20.6671 117.195C20.3118 117.797 20.1341 118.774 20.1341 120.126C20.1341 121.457 20.3118 122.419 20.6671 123.012C21.0225 123.606 21.536 123.903 22.2076 123.903ZM33.0796 124.8H31.8056L29.6996 121.426L28.3736 122.798V124.8H27.1776V115.141H28.3736V121.439L31.5326 118.079H32.9106L30.4861 120.64L33.0796 124.8Z" fill="#4B465C"/>
<path d="M11.285 124.8V124.065V123.682C11.285 123.201 11.3738 122.785 11.5515 122.434C11.7335 122.083 11.9718 121.777 12.2665 121.517C12.5655 121.253 12.8905 121.017 13.2415 120.809C13.5968 120.601 13.95 120.402 14.301 120.211C14.6563 120.016 14.9813 119.814 15.276 119.606C15.5707 119.394 15.8068 119.156 15.9845 118.891C16.1665 118.623 16.2575 118.306 16.2575 117.942C16.2575 117.466 16.0885 117.078 15.7505 116.779C15.4168 116.48 14.964 116.33 14.392 116.33C13.7767 116.33 13.2827 116.504 12.91 116.85C12.5373 117.197 12.3272 117.659 12.2795 118.235H11.0835C11.0965 117.693 11.2308 117.199 11.4865 116.753C11.7422 116.302 12.117 115.943 12.611 115.674C13.105 115.405 13.7138 115.271 14.4375 115.271C15.0658 115.271 15.6118 115.384 16.0755 115.609C16.5392 115.83 16.8967 116.142 17.148 116.545C17.4037 116.944 17.5315 117.409 17.5315 117.942C17.5315 118.428 17.4427 118.844 17.265 119.19C17.0873 119.537 16.8512 119.838 16.5565 120.094C16.2662 120.345 15.9477 120.571 15.601 120.77C15.2543 120.969 14.9055 121.162 14.5545 121.348C14.2035 121.53 13.8828 121.723 13.5925 121.927C13.3022 122.126 13.0682 122.356 12.8905 122.616C12.7128 122.876 12.624 123.186 12.624 123.545V123.734H17.5835V124.8H11.285ZM22.2076 115.271C23.226 115.271 24.0363 115.68 24.6386 116.499C25.2453 117.314 25.5486 118.521 25.5486 120.12C25.5486 121.71 25.2475 122.913 24.6451 123.727C24.0428 124.538 23.226 124.943 22.1946 124.943C21.1676 124.943 20.353 124.54 19.7506 123.734C19.1483 122.924 18.8471 121.725 18.8471 120.139C18.8471 119.069 18.9858 118.172 19.2631 117.448C19.5405 116.725 19.9305 116.181 20.4331 115.817C20.9358 115.453 21.5273 115.271 22.2076 115.271ZM22.2076 123.903C22.8793 123.903 23.3863 123.608 23.7286 123.019C24.0753 122.425 24.2486 121.461 24.2486 120.126C24.2486 118.766 24.0731 117.786 23.7221 117.188C23.3755 116.586 22.8685 116.285 22.2011 116.285C21.5381 116.285 21.0268 116.588 20.6671 117.195C20.3118 117.797 20.1341 118.774 20.1341 120.126C20.1341 121.457 20.3118 122.419 20.6671 123.012C21.0225 123.606 21.536 123.903 22.2076 123.903ZM33.0796 124.8H31.8056L29.6996 121.426L28.3736 122.798V124.8H27.1776V115.141H28.3736V121.439L31.5326 118.079H32.9106L30.4861 120.64L33.0796 124.8Z" fill="white" fill-opacity="0.5"/>
<path d="M15.6221 161.4V153.919H13.8086V153.132C14.3719 153.132 14.8096 153.091 15.1216 153.009C15.4336 152.926 15.6546 152.801 15.7846 152.632C15.9189 152.463 15.9926 152.252 16.0056 152.001H16.8636V161.4H15.6221ZM22.4825 151.871C23.5009 151.871 24.3112 152.281 24.9135 153.1C25.5202 153.914 25.8235 155.121 25.8235 156.72C25.8235 158.31 25.5224 159.513 24.92 160.328C24.3177 161.138 23.5009 161.543 22.4695 161.543C21.4425 161.543 20.6279 161.14 20.0255 160.334C19.4232 159.524 19.122 158.326 19.122 156.74C19.122 155.669 19.2607 154.772 19.538 154.049C19.8154 153.325 20.2054 152.781 20.708 152.417C21.2107 152.053 21.8022 151.871 22.4825 151.871ZM22.4825 160.503C23.1542 160.503 23.6612 160.208 24.0035 159.619C24.3502 159.025 24.5235 158.061 24.5235 156.727C24.5235 155.366 24.348 154.387 23.997 153.789C23.6504 153.186 23.1434 152.885 22.476 152.885C21.813 152.885 21.3017 153.188 20.942 153.795C20.5867 154.397 20.409 155.375 20.409 156.727C20.409 158.057 20.5867 159.019 20.942 159.613C21.2974 160.206 21.8109 160.503 22.4825 160.503ZM33.3545 161.4H32.0805L29.9745 158.027L28.6485 159.398V161.4H27.4525V151.741H28.6485V158.04L31.8075 154.679H33.1855L30.761 157.24L33.3545 161.4Z" fill="#4B465C"/>
<path d="M15.6221 161.4V153.919H13.8086V153.132C14.3719 153.132 14.8096 153.091 15.1216 153.009C15.4336 152.926 15.6546 152.801 15.7846 152.632C15.9189 152.463 15.9926 152.252 16.0056 152.001H16.8636V161.4H15.6221ZM22.4825 151.871C23.5009 151.871 24.3112 152.281 24.9135 153.1C25.5202 153.914 25.8235 155.121 25.8235 156.72C25.8235 158.31 25.5224 159.513 24.92 160.328C24.3177 161.138 23.5009 161.543 22.4695 161.543C21.4425 161.543 20.6279 161.14 20.0255 160.334C19.4232 159.524 19.122 158.326 19.122 156.74C19.122 155.669 19.2607 154.772 19.538 154.049C19.8154 153.325 20.2054 152.781 20.708 152.417C21.2107 152.053 21.8022 151.871 22.4825 151.871ZM22.4825 160.503C23.1542 160.503 23.6612 160.208 24.0035 159.619C24.3502 159.025 24.5235 158.061 24.5235 156.727C24.5235 155.366 24.348 154.387 23.997 153.789C23.6504 153.186 23.1434 152.885 22.476 152.885C21.813 152.885 21.3017 153.188 20.942 153.795C20.5867 154.397 20.409 155.375 20.409 156.727C20.409 158.057 20.5867 159.019 20.942 159.613C21.2974 160.206 21.8109 160.503 22.4825 160.503ZM33.3545 161.4H32.0805L29.9745 158.027L28.6485 159.398V161.4H27.4525V151.741H28.6485V158.04L31.8075 154.679H33.1855L30.761 157.24L33.3545 161.4Z" fill="white" fill-opacity="0.5"/>
<path d="M22.3356 188.471C23.3539 188.471 24.1642 188.88 24.7666 189.699C25.3732 190.514 25.6766 191.721 25.6766 193.32C25.6766 194.91 25.3754 196.113 24.7731 196.927C24.1707 197.738 23.3539 198.143 22.3226 198.143C21.2956 198.143 20.4809 197.74 19.8786 196.934C19.2762 196.124 18.9751 194.925 18.9751 193.339C18.9751 192.269 19.1137 191.372 19.3911 190.648C19.6684 189.925 20.0584 189.381 20.5611 189.017C21.0637 188.653 21.6552 188.471 22.3356 188.471ZM22.3356 197.103C23.0072 197.103 23.5142 196.808 23.8566 196.219C24.2032 195.625 24.3766 194.661 24.3766 193.326C24.3766 191.966 24.2011 190.987 23.8501 190.388C23.5034 189.786 22.9964 189.485 22.3291 189.485C21.6661 189.485 21.1547 189.788 20.7951 190.395C20.4397 190.997 20.2621 191.974 20.2621 193.326C20.2621 194.657 20.4397 195.619 20.7951 196.212C21.1504 196.806 21.6639 197.103 22.3356 197.103ZM33.2075 198H31.9335L29.8275 194.626L28.5015 195.998V198H27.3055V188.341H28.5015V194.639L31.6605 191.279H33.0385L30.614 193.84L33.2075 198Z" fill="#4B465C"/>
<path d="M22.3356 188.471C23.3539 188.471 24.1642 188.88 24.7666 189.699C25.3732 190.514 25.6766 191.721 25.6766 193.32C25.6766 194.91 25.3754 196.113 24.7731 196.927C24.1707 197.738 23.3539 198.143 22.3226 198.143C21.2956 198.143 20.4809 197.74 19.8786 196.934C19.2762 196.124 18.9751 194.925 18.9751 193.339C18.9751 192.269 19.1137 191.372 19.3911 190.648C19.6684 189.925 20.0584 189.381 20.5611 189.017C21.0637 188.653 21.6552 188.471 22.3356 188.471ZM22.3356 197.103C23.0072 197.103 23.5142 196.808 23.8566 196.219C24.2032 195.625 24.3766 194.661 24.3766 193.326C24.3766 191.966 24.2011 190.987 23.8501 190.388C23.5034 189.786 22.9964 189.485 22.3291 189.485C21.6661 189.485 21.1547 189.788 20.7951 190.395C20.4397 190.997 20.2621 191.974 20.2621 193.326C20.2621 194.657 20.4397 195.619 20.7951 196.212C21.1504 196.806 21.6639 197.103 22.3356 197.103ZM33.2075 198H31.9335L29.8275 194.626L28.5015 195.998V198H27.3055V188.341H28.5015V194.639L31.6605 191.279H33.0385L30.614 193.84L33.2075 198Z" fill="white" fill-opacity="0.5"/>
<path d="M71 175L131 134H212L225 98L262 68L284 109L348 91L356 60L413 40L432 76L475 98L485 68L529 40L568 84H587" stroke="#0F60FF" stroke-width="4" stroke-linecap="square"/>
<line x1="70" y1="202.5" x2="588" y2="202.5" stroke="#DBDADE"/>
<path d="M71.6272 228V218.601H73.2912L76.1252 226.362L78.9982 218.601H80.6557V228H79.4142V220.401L76.6907 228H75.5662L72.8622 220.473V228H71.6272ZM85.4775 228.13C84.8579 228.13 84.3162 227.998 83.8525 227.733C83.3889 227.465 83.0292 227.073 82.7735 226.557C82.5179 226.041 82.39 225.411 82.39 224.665C82.39 223.963 82.5092 223.348 82.7475 222.819C82.9859 222.291 83.3347 221.881 83.794 221.591C84.2577 221.296 84.8189 221.149 85.4775 221.149C86.0972 221.149 86.6345 221.285 87.0895 221.558C87.5489 221.827 87.9042 222.224 88.1555 222.748C88.4069 223.272 88.5325 223.911 88.5325 224.665C88.5325 225.35 88.4155 225.952 88.1815 226.472C87.9519 226.992 87.6095 227.4 87.1545 227.694C86.7039 227.985 86.1449 228.13 85.4775 228.13ZM85.4775 227.181C85.8805 227.181 86.2207 227.079 86.498 226.875C86.7754 226.672 86.9855 226.379 87.1285 225.998C87.2715 225.617 87.343 225.164 87.343 224.639C87.343 224.158 87.2802 223.727 87.1545 223.346C87.0289 222.96 86.8274 222.655 86.55 222.429C86.277 222.204 85.9195 222.091 85.4775 222.091C85.0702 222.091 84.7257 222.193 84.444 222.397C84.1624 222.596 83.9479 222.887 83.8005 223.268C83.6575 223.649 83.586 224.106 83.586 224.639C83.586 225.112 83.651 225.541 83.781 225.926C83.911 226.312 84.1147 226.618 84.392 226.843C84.6694 227.068 85.0312 227.181 85.4775 227.181ZM90.1058 228V221.279H91.2693V222.254C91.3777 222.068 91.5272 221.892 91.7178 221.727C91.9128 221.563 92.1468 221.431 92.4198 221.331C92.6972 221.231 93.0157 221.181 93.3753 221.181C93.8 221.181 94.19 221.266 94.5453 221.435C94.905 221.604 95.191 221.868 95.4033 222.228C95.62 222.583 95.7283 223.043 95.7283 223.606V228H94.5258V223.723C94.5258 223.199 94.3872 222.811 94.1098 222.559C93.8368 222.304 93.4815 222.176 93.0438 222.176C92.7405 222.176 92.4567 222.226 92.1923 222.325C91.928 222.421 91.7135 222.568 91.5488 222.767C91.3842 222.962 91.3018 223.209 91.3018 223.508V228H90.1058Z" fill="#4B465C"/>
<path d="M71.6272 228V218.601H73.2912L76.1252 226.362L78.9982 218.601H80.6557V228H79.4142V220.401L76.6907 228H75.5662L72.8622 220.473V228H71.6272ZM85.4775 228.13C84.8579 228.13 84.3162 227.998 83.8525 227.733C83.3889 227.465 83.0292 227.073 82.7735 226.557C82.5179 226.041 82.39 225.411 82.39 224.665C82.39 223.963 82.5092 223.348 82.7475 222.819C82.9859 222.291 83.3347 221.881 83.794 221.591C84.2577 221.296 84.8189 221.149 85.4775 221.149C86.0972 221.149 86.6345 221.285 87.0895 221.558C87.5489 221.827 87.9042 222.224 88.1555 222.748C88.4069 223.272 88.5325 223.911 88.5325 224.665C88.5325 225.35 88.4155 225.952 88.1815 226.472C87.9519 226.992 87.6095 227.4 87.1545 227.694C86.7039 227.985 86.1449 228.13 85.4775 228.13ZM85.4775 227.181C85.8805 227.181 86.2207 227.079 86.498 226.875C86.7754 226.672 86.9855 226.379 87.1285 225.998C87.2715 225.617 87.343 225.164 87.343 224.639C87.343 224.158 87.2802 223.727 87.1545 223.346C87.0289 222.96 86.8274 222.655 86.55 222.429C86.277 222.204 85.9195 222.091 85.4775 222.091C85.0702 222.091 84.7257 222.193 84.444 222.397C84.1624 222.596 83.9479 222.887 83.8005 223.268C83.6575 223.649 83.586 224.106 83.586 224.639C83.586 225.112 83.651 225.541 83.781 225.926C83.911 226.312 84.1147 226.618 84.392 226.843C84.6694 227.068 85.0312 227.181 85.4775 227.181ZM90.1058 228V221.279H91.2693V222.254C91.3777 222.068 91.5272 221.892 91.7178 221.727C91.9128 221.563 92.1468 221.431 92.4198 221.331C92.6972 221.231 93.0157 221.181 93.3753 221.181C93.8 221.181 94.19 221.266 94.5453 221.435C94.905 221.604 95.191 221.868 95.4033 222.228C95.62 222.583 95.7283 223.043 95.7283 223.606V228H94.5258V223.723C94.5258 223.199 94.3872 222.811 94.1098 222.559C93.8368 222.304 93.4815 222.176 93.0438 222.176C92.7405 222.176 92.4567 222.226 92.1923 222.325C91.928 222.421 91.7135 222.568 91.5488 222.767C91.3842 222.962 91.3018 223.209 91.3018 223.508V228H90.1058Z" fill="white" fill-opacity="0.5"/>
<path d="M156.919 219.706V218.601H164.03V219.706H161.164V228H159.955V219.706H156.919ZM167.08 228.13C166.729 228.126 166.397 228.076 166.085 227.98C165.778 227.881 165.505 227.736 165.266 227.545C165.028 227.354 164.839 227.118 164.701 226.836C164.566 226.55 164.499 226.219 164.499 225.842V221.279H165.702V225.718C165.702 226.156 165.836 226.511 166.105 226.784C166.378 227.057 166.787 227.194 167.333 227.194C167.827 227.194 168.224 227.066 168.523 226.81C168.826 226.55 168.978 226.165 168.978 225.653V221.279H170.174V228H169.218L169.095 226.713C169.012 227.051 168.872 227.324 168.672 227.532C168.477 227.74 168.241 227.894 167.964 227.993C167.691 228.089 167.396 228.134 167.08 228.13ZM172.907 224.919C172.907 225.344 172.977 225.729 173.115 226.076C173.258 226.418 173.473 226.691 173.759 226.895C174.049 227.099 174.411 227.2 174.844 227.2C175.273 227.2 175.642 227.101 175.949 226.901C176.261 226.702 176.461 226.414 176.547 226.037H177.685C177.602 226.492 177.42 226.875 177.139 227.188C176.857 227.499 176.517 227.736 176.118 227.896C175.72 228.052 175.304 228.13 174.87 228.13C174.242 228.13 173.689 227.994 173.213 227.72C172.736 227.447 172.363 227.055 172.095 226.544C171.826 226.033 171.692 225.419 171.692 224.704C171.692 223.998 171.813 223.378 172.056 222.845C172.298 222.312 172.649 221.896 173.109 221.597C173.572 221.298 174.129 221.149 174.779 221.149C175.412 221.149 175.947 221.285 176.385 221.558C176.822 221.831 177.154 222.217 177.379 222.715C177.609 223.209 177.724 223.797 177.724 224.477V224.919H172.907ZM172.914 224.106H176.567C176.567 223.721 176.502 223.374 176.372 223.066C176.242 222.754 176.042 222.51 175.774 222.332C175.509 222.15 175.176 222.059 174.773 222.059C174.352 222.059 174.004 222.161 173.726 222.364C173.453 222.564 173.247 222.822 173.109 223.138C172.974 223.45 172.909 223.773 172.914 224.106Z" fill="#4B465C"/>
<path d="M156.919 219.706V218.601H164.03V219.706H161.164V228H159.955V219.706H156.919ZM167.08 228.13C166.729 228.126 166.397 228.076 166.085 227.98C165.778 227.881 165.505 227.736 165.266 227.545C165.028 227.354 164.839 227.118 164.701 226.836C164.566 226.55 164.499 226.219 164.499 225.842V221.279H165.702V225.718C165.702 226.156 165.836 226.511 166.105 226.784C166.378 227.057 166.787 227.194 167.333 227.194C167.827 227.194 168.224 227.066 168.523 226.81C168.826 226.55 168.978 226.165 168.978 225.653V221.279H170.174V228H169.218L169.095 226.713C169.012 227.051 168.872 227.324 168.672 227.532C168.477 227.74 168.241 227.894 167.964 227.993C167.691 228.089 167.396 228.134 167.08 228.13ZM172.907 224.919C172.907 225.344 172.977 225.729 173.115 226.076C173.258 226.418 173.473 226.691 173.759 226.895C174.049 227.099 174.411 227.2 174.844 227.2C175.273 227.2 175.642 227.101 175.949 226.901C176.261 226.702 176.461 226.414 176.547 226.037H177.685C177.602 226.492 177.42 226.875 177.139 227.188C176.857 227.499 176.517 227.736 176.118 227.896C175.72 228.052 175.304 228.13 174.87 228.13C174.242 228.13 173.689 227.994 173.213 227.72C172.736 227.447 172.363 227.055 172.095 226.544C171.826 226.033 171.692 225.419 171.692 224.704C171.692 223.998 171.813 223.378 172.056 222.845C172.298 222.312 172.649 221.896 173.109 221.597C173.572 221.298 174.129 221.149 174.779 221.149C175.412 221.149 175.947 221.285 176.385 221.558C176.822 221.831 177.154 222.217 177.379 222.715C177.609 223.209 177.724 223.797 177.724 224.477V224.919H172.907ZM172.914 224.106H176.567C176.567 223.721 176.502 223.374 176.372 223.066C176.242 222.754 176.042 222.51 175.774 222.332C175.509 222.15 175.176 222.059 174.773 222.059C174.352 222.059 174.004 222.161 173.726 222.364C173.453 222.564 173.247 222.822 173.109 223.138C172.974 223.45 172.909 223.773 172.914 224.106Z" fill="white" fill-opacity="0.5"/>
<path d="M250.159 218.601L247.416 228H246.304L244.244 220.713L242.151 228H241.072L238.361 218.601H239.577L241.657 226.082L243.776 218.601H244.718L246.831 226.082L248.95 218.601H250.159ZM251.734 224.919C251.734 225.344 251.803 225.729 251.942 226.076C252.085 226.418 252.299 226.691 252.585 226.895C252.876 227.099 253.238 227.2 253.671 227.2C254.1 227.2 254.468 227.101 254.776 226.901C255.088 226.702 255.287 226.414 255.374 226.037H256.511C256.429 226.492 256.247 226.875 255.965 227.188C255.684 227.499 255.344 227.736 254.945 227.896C254.546 228.052 254.13 228.13 253.697 228.13C253.069 228.13 252.516 227.994 252.039 227.72C251.563 227.447 251.19 227.055 250.921 226.544C250.653 226.033 250.518 225.419 250.518 224.704C250.518 223.998 250.64 223.378 250.882 222.845C251.125 222.312 251.476 221.896 251.935 221.597C252.399 221.298 252.956 221.149 253.606 221.149C254.239 221.149 254.774 221.285 255.211 221.558C255.649 221.831 255.981 222.217 256.206 222.715C256.436 223.209 256.55 223.797 256.55 224.477V224.919H251.734ZM251.74 224.106H255.393C255.393 223.721 255.328 223.374 255.198 223.066C255.068 222.754 254.869 222.51 254.6 222.332C254.336 222.15 254.002 222.059 253.599 222.059C253.179 222.059 252.83 222.161 252.553 222.364C252.28 222.564 252.074 222.822 251.935 223.138C251.801 223.45 251.736 223.773 251.74 224.106ZM260.626 228.13C259.755 228.13 259.063 227.831 258.552 227.233C258.041 226.635 257.785 225.762 257.785 224.613C257.785 223.916 257.887 223.307 258.091 222.787C258.299 222.267 258.606 221.864 259.014 221.578C259.421 221.292 259.928 221.149 260.535 221.149C260.855 221.149 261.139 221.19 261.386 221.272C261.637 221.355 261.854 221.459 262.036 221.584C262.218 221.71 262.365 221.84 262.478 221.974C262.595 222.109 262.682 222.232 262.738 222.345V218.341H263.947V228H263.031L262.901 226.622C262.857 226.752 262.788 226.904 262.693 227.077C262.597 227.246 262.463 227.413 262.29 227.577C262.116 227.738 261.893 227.87 261.62 227.974C261.351 228.078 261.02 228.13 260.626 228.13ZM260.84 227.207C261.52 227.207 262.006 227.001 262.296 226.589C262.591 226.173 262.738 225.495 262.738 224.555C262.734 224.031 262.667 223.584 262.537 223.216C262.411 222.848 262.212 222.568 261.939 222.377C261.67 222.182 261.312 222.085 260.866 222.085C260.311 222.085 259.861 222.282 259.514 222.676C259.167 223.071 258.994 223.697 258.994 224.555C258.994 225.396 259.15 226.048 259.462 226.511C259.778 226.975 260.238 227.207 260.84 227.207Z" fill="#4B465C"/>
<path d="M250.159 218.601L247.416 228H246.304L244.244 220.713L242.151 228H241.072L238.361 218.601H239.577L241.657 226.082L243.776 218.601H244.718L246.831 226.082L248.95 218.601H250.159ZM251.734 224.919C251.734 225.344 251.803 225.729 251.942 226.076C252.085 226.418 252.299 226.691 252.585 226.895C252.876 227.099 253.238 227.2 253.671 227.2C254.1 227.2 254.468 227.101 254.776 226.901C255.088 226.702 255.287 226.414 255.374 226.037H256.511C256.429 226.492 256.247 226.875 255.965 227.188C255.684 227.499 255.344 227.736 254.945 227.896C254.546 228.052 254.13 228.13 253.697 228.13C253.069 228.13 252.516 227.994 252.039 227.72C251.563 227.447 251.19 227.055 250.921 226.544C250.653 226.033 250.518 225.419 250.518 224.704C250.518 223.998 250.64 223.378 250.882 222.845C251.125 222.312 251.476 221.896 251.935 221.597C252.399 221.298 252.956 221.149 253.606 221.149C254.239 221.149 254.774 221.285 255.211 221.558C255.649 221.831 255.981 222.217 256.206 222.715C256.436 223.209 256.55 223.797 256.55 224.477V224.919H251.734ZM251.74 224.106H255.393C255.393 223.721 255.328 223.374 255.198 223.066C255.068 222.754 254.869 222.51 254.6 222.332C254.336 222.15 254.002 222.059 253.599 222.059C253.179 222.059 252.83 222.161 252.553 222.364C252.28 222.564 252.074 222.822 251.935 223.138C251.801 223.45 251.736 223.773 251.74 224.106ZM260.626 228.13C259.755 228.13 259.063 227.831 258.552 227.233C258.041 226.635 257.785 225.762 257.785 224.613C257.785 223.916 257.887 223.307 258.091 222.787C258.299 222.267 258.606 221.864 259.014 221.578C259.421 221.292 259.928 221.149 260.535 221.149C260.855 221.149 261.139 221.19 261.386 221.272C261.637 221.355 261.854 221.459 262.036 221.584C262.218 221.71 262.365 221.84 262.478 221.974C262.595 222.109 262.682 222.232 262.738 222.345V218.341H263.947V228H263.031L262.901 226.622C262.857 226.752 262.788 226.904 262.693 227.077C262.597 227.246 262.463 227.413 262.29 227.577C262.116 227.738 261.893 227.87 261.62 227.974C261.351 228.078 261.02 228.13 260.626 228.13ZM260.84 227.207C261.52 227.207 262.006 227.001 262.296 226.589C262.591 226.173 262.738 225.495 262.738 224.555C262.734 224.031 262.667 223.584 262.537 223.216C262.411 222.848 262.212 222.568 261.939 222.377C261.67 222.182 261.312 222.085 260.866 222.085C260.311 222.085 259.861 222.282 259.514 222.676C259.167 223.071 258.994 223.697 258.994 224.555C258.994 225.396 259.15 226.048 259.462 226.511C259.778 226.975 260.238 227.207 260.84 227.207Z" fill="white" fill-opacity="0.5"/>
<path d="M325.026 219.706V218.601H332.137V219.706H329.27V228H328.061V219.706H325.026ZM333.44 228V218.341H334.61V222.267C334.722 222.081 334.874 221.907 335.065 221.747C335.255 221.582 335.487 221.45 335.76 221.35C336.033 221.246 336.35 221.194 336.709 221.194C337.147 221.194 337.543 221.277 337.899 221.441C338.254 221.602 338.536 221.831 338.744 222.13C338.952 222.429 339.056 222.785 339.056 223.196V228H337.853V223.437C337.853 223.034 337.715 222.724 337.437 222.507C337.164 222.286 336.807 222.176 336.365 222.176C336.066 222.176 335.784 222.226 335.52 222.325C335.255 222.421 335.041 222.568 334.876 222.767C334.716 222.962 334.636 223.212 334.636 223.515V228H333.44ZM343.298 228.13C342.947 228.126 342.616 228.076 342.304 227.98C341.996 227.881 341.723 227.736 341.485 227.545C341.247 227.354 341.058 227.118 340.919 226.836C340.785 226.55 340.718 226.219 340.718 225.842V221.279H341.92V225.718C341.92 226.156 342.055 226.511 342.323 226.784C342.596 227.057 343.006 227.194 343.552 227.194C344.046 227.194 344.442 227.066 344.741 226.81C345.045 226.55 345.196 226.165 345.196 225.653V221.279H346.392V228H345.437L345.313 226.713C345.231 227.051 345.09 227.324 344.891 227.532C344.696 227.74 344.46 227.894 344.182 227.993C343.909 228.089 343.615 228.134 343.298 228.13Z" fill="#4B465C"/>
<path d="M325.026 219.706V218.601H332.137V219.706H329.27V228H328.061V219.706H325.026ZM333.44 228V218.341H334.61V222.267C334.722 222.081 334.874 221.907 335.065 221.747C335.255 221.582 335.487 221.45 335.76 221.35C336.033 221.246 336.35 221.194 336.709 221.194C337.147 221.194 337.543 221.277 337.899 221.441C338.254 221.602 338.536 221.831 338.744 222.13C338.952 222.429 339.056 222.785 339.056 223.196V228H337.853V223.437C337.853 223.034 337.715 222.724 337.437 222.507C337.164 222.286 336.807 222.176 336.365 222.176C336.066 222.176 335.784 222.226 335.52 222.325C335.255 222.421 335.041 222.568 334.876 222.767C334.716 222.962 334.636 223.212 334.636 223.515V228H333.44ZM343.298 228.13C342.947 228.126 342.616 228.076 342.304 227.98C341.996 227.881 341.723 227.736 341.485 227.545C341.247 227.354 341.058 227.118 340.919 226.836C340.785 226.55 340.718 226.219 340.718 225.842V221.279H341.92V225.718C341.92 226.156 342.055 226.511 342.323 226.784C342.596 227.057 343.006 227.194 343.552 227.194C344.046 227.194 344.442 227.066 344.741 226.81C345.045 226.55 345.196 226.165 345.196 225.653V221.279H346.392V228H345.437L345.313 226.713C345.231 227.051 345.09 227.324 344.891 227.532C344.696 227.74 344.46 227.894 344.182 227.993C343.909 228.089 343.615 228.134 343.298 228.13Z" fill="white" fill-opacity="0.5"/>
<path d="M408.655 218.601H414.511L414.505 219.654H409.89V222.761H414.037V223.801H409.89V228H408.655V218.601ZM416.126 228V221.279H417.27V222.572C417.383 222.252 417.541 221.987 417.745 221.779C417.949 221.567 418.18 221.409 418.44 221.305C418.705 221.201 418.978 221.149 419.259 221.149C419.359 221.149 419.457 221.155 419.552 221.169C419.647 221.181 419.721 221.203 419.773 221.233V222.397C419.708 222.367 419.623 222.347 419.519 222.338C419.42 222.325 419.335 222.319 419.266 222.319C418.997 222.302 418.746 222.319 418.512 222.371C418.278 222.419 418.072 222.503 417.894 222.624C417.717 222.746 417.576 222.906 417.472 223.105C417.372 223.3 417.322 223.539 417.322 223.82V228H416.126ZM422.466 221.279V228H421.303V221.279H422.466ZM422.492 218.607V219.855H421.264V218.607H422.492Z" fill="#4B465C"/>
<path d="M408.655 218.601H414.511L414.505 219.654H409.89V222.761H414.037V223.801H409.89V228H408.655V218.601ZM416.126 228V221.279H417.27V222.572C417.383 222.252 417.541 221.987 417.745 221.779C417.949 221.567 418.18 221.409 418.44 221.305C418.705 221.201 418.978 221.149 419.259 221.149C419.359 221.149 419.457 221.155 419.552 221.169C419.647 221.181 419.721 221.203 419.773 221.233V222.397C419.708 222.367 419.623 222.347 419.519 222.338C419.42 222.325 419.335 222.319 419.266 222.319C418.997 222.302 418.746 222.319 418.512 222.371C418.278 222.419 418.072 222.503 417.894 222.624C417.717 222.746 417.576 222.906 417.472 223.105C417.372 223.3 417.322 223.539 417.322 223.82V228H416.126ZM422.466 221.279V228H421.303V221.279H422.466ZM422.492 218.607V219.855H421.264V218.607H422.492Z" fill="white" fill-opacity="0.5"/>
<path d="M487.997 228.13C487.555 228.13 487.126 228.076 486.71 227.967C486.294 227.855 485.917 227.688 485.579 227.467C485.241 227.246 484.96 226.973 484.734 226.648C484.513 226.319 484.375 225.937 484.318 225.504H485.579C485.657 225.859 485.811 226.158 486.041 226.401C486.275 226.644 486.559 226.826 486.892 226.947C487.23 227.068 487.597 227.129 487.991 227.129C488.433 227.129 488.827 227.068 489.174 226.947C489.525 226.821 489.8 226.644 489.999 226.414C490.203 226.184 490.305 225.909 490.305 225.588C490.305 225.307 490.24 225.062 490.11 224.854C489.984 224.646 489.8 224.473 489.557 224.334C489.315 224.195 489.02 224.087 488.673 224.009L486.827 223.58C486.134 223.428 485.59 223.157 485.196 222.767C484.806 222.377 484.607 221.862 484.598 221.22C484.598 220.679 484.741 220.202 485.027 219.79C485.317 219.379 485.714 219.058 486.216 218.828C486.723 218.599 487.302 218.484 487.952 218.484C488.702 218.484 489.332 218.612 489.843 218.867C490.355 219.123 490.74 219.459 491 219.875C491.26 220.291 491.393 220.735 491.397 221.207H490.155C490.116 220.783 489.991 220.447 489.778 220.2C489.57 219.949 489.308 219.771 488.992 219.667C488.676 219.559 488.331 219.504 487.958 219.504C487.69 219.504 487.43 219.539 487.178 219.608C486.931 219.673 486.708 219.773 486.509 219.907C486.314 220.042 486.158 220.209 486.041 220.408C485.924 220.607 485.865 220.839 485.865 221.103C485.865 221.441 485.98 221.717 486.21 221.929C486.444 222.141 486.866 222.323 487.477 222.475L489.265 222.904C489.733 223.004 490.114 223.151 490.409 223.346C490.708 223.541 490.938 223.762 491.098 224.009C491.263 224.256 491.375 224.514 491.436 224.782C491.501 225.051 491.533 225.315 491.533 225.575C491.533 226.048 491.393 226.479 491.111 226.869C490.829 227.255 490.424 227.562 489.895 227.792C489.371 228.017 488.738 228.13 487.997 228.13ZM495.127 228.13C494.694 228.13 494.31 228.054 493.976 227.902C493.643 227.746 493.381 227.523 493.19 227.233C493.004 226.943 492.91 226.592 492.91 226.18C492.91 225.435 493.17 224.88 493.69 224.516C494.21 224.152 495.045 223.957 496.193 223.931L497.395 223.898V223.372C497.395 222.96 497.272 222.635 497.025 222.397C496.778 222.154 496.394 222.033 495.874 222.033C495.489 222.037 495.149 222.128 494.854 222.306C494.564 222.484 494.375 222.774 494.288 223.177H493.229C493.255 222.739 493.378 222.371 493.599 222.072C493.82 221.769 494.128 221.539 494.522 221.383C494.921 221.227 495.391 221.149 495.933 221.149C496.518 221.149 497.003 221.231 497.389 221.396C497.779 221.561 498.069 221.803 498.26 222.124C498.455 222.445 498.552 222.839 498.552 223.307V228H497.525L497.441 226.739C497.181 227.263 496.849 227.627 496.446 227.831C496.048 228.03 495.608 228.13 495.127 228.13ZM495.491 227.265C495.716 227.265 495.939 227.224 496.16 227.142C496.386 227.06 496.592 226.949 496.778 226.81C496.964 226.667 497.112 226.509 497.22 226.336C497.333 226.158 497.391 225.976 497.395 225.79V224.639L496.394 224.659C495.883 224.668 495.454 224.72 495.107 224.815C494.765 224.91 494.507 225.06 494.334 225.263C494.165 225.467 494.08 225.734 494.08 226.063C494.08 226.44 494.21 226.735 494.47 226.947C494.735 227.159 495.075 227.265 495.491 227.265ZM503.703 222.156H502.189V226.336C502.189 226.574 502.212 226.75 502.26 226.862C502.312 226.971 502.397 227.04 502.514 227.07C502.635 227.101 502.8 227.116 503.008 227.116H503.742V227.922C503.66 227.952 503.534 227.978 503.365 228C503.2 228.022 502.995 228.033 502.748 228.033C502.284 228.033 501.924 227.97 501.669 227.844C501.413 227.718 501.233 227.532 501.129 227.285C501.029 227.038 500.98 226.735 500.98 226.375V222.156H499.888V221.279H501.012L501.305 219.322H502.189V221.272H503.703V222.156Z" fill="#4B465C"/>
<path d="M487.997 228.13C487.555 228.13 487.126 228.076 486.71 227.967C486.294 227.855 485.917 227.688 485.579 227.467C485.241 227.246 484.96 226.973 484.734 226.648C484.513 226.319 484.375 225.937 484.318 225.504H485.579C485.657 225.859 485.811 226.158 486.041 226.401C486.275 226.644 486.559 226.826 486.892 226.947C487.23 227.068 487.597 227.129 487.991 227.129C488.433 227.129 488.827 227.068 489.174 226.947C489.525 226.821 489.8 226.644 489.999 226.414C490.203 226.184 490.305 225.909 490.305 225.588C490.305 225.307 490.24 225.062 490.11 224.854C489.984 224.646 489.8 224.473 489.557 224.334C489.315 224.195 489.02 224.087 488.673 224.009L486.827 223.58C486.134 223.428 485.59 223.157 485.196 222.767C484.806 222.377 484.607 221.862 484.598 221.22C484.598 220.679 484.741 220.202 485.027 219.79C485.317 219.379 485.714 219.058 486.216 218.828C486.723 218.599 487.302 218.484 487.952 218.484C488.702 218.484 489.332 218.612 489.843 218.867C490.355 219.123 490.74 219.459 491 219.875C491.26 220.291 491.393 220.735 491.397 221.207H490.155C490.116 220.783 489.991 220.447 489.778 220.2C489.57 219.949 489.308 219.771 488.992 219.667C488.676 219.559 488.331 219.504 487.958 219.504C487.69 219.504 487.43 219.539 487.178 219.608C486.931 219.673 486.708 219.773 486.509 219.907C486.314 220.042 486.158 220.209 486.041 220.408C485.924 220.607 485.865 220.839 485.865 221.103C485.865 221.441 485.98 221.717 486.21 221.929C486.444 222.141 486.866 222.323 487.477 222.475L489.265 222.904C489.733 223.004 490.114 223.151 490.409 223.346C490.708 223.541 490.938 223.762 491.098 224.009C491.263 224.256 491.375 224.514 491.436 224.782C491.501 225.051 491.533 225.315 491.533 225.575C491.533 226.048 491.393 226.479 491.111 226.869C490.829 227.255 490.424 227.562 489.895 227.792C489.371 228.017 488.738 228.13 487.997 228.13ZM495.127 228.13C494.694 228.13 494.31 228.054 493.976 227.902C493.643 227.746 493.381 227.523 493.19 227.233C493.004 226.943 492.91 226.592 492.91 226.18C492.91 225.435 493.17 224.88 493.69 224.516C494.21 224.152 495.045 223.957 496.193 223.931L497.395 223.898V223.372C497.395 222.96 497.272 222.635 497.025 222.397C496.778 222.154 496.394 222.033 495.874 222.033C495.489 222.037 495.149 222.128 494.854 222.306C494.564 222.484 494.375 222.774 494.288 223.177H493.229C493.255 222.739 493.378 222.371 493.599 222.072C493.82 221.769 494.128 221.539 494.522 221.383C494.921 221.227 495.391 221.149 495.933 221.149C496.518 221.149 497.003 221.231 497.389 221.396C497.779 221.561 498.069 221.803 498.26 222.124C498.455 222.445 498.552 222.839 498.552 223.307V228H497.525L497.441 226.739C497.181 227.263 496.849 227.627 496.446 227.831C496.048 228.03 495.608 228.13 495.127 228.13ZM495.491 227.265C495.716 227.265 495.939 227.224 496.16 227.142C496.386 227.06 496.592 226.949 496.778 226.81C496.964 226.667 497.112 226.509 497.22 226.336C497.333 226.158 497.391 225.976 497.395 225.79V224.639L496.394 224.659C495.883 224.668 495.454 224.72 495.107 224.815C494.765 224.91 494.507 225.06 494.334 225.263C494.165 225.467 494.08 225.734 494.08 226.063C494.08 226.44 494.21 226.735 494.47 226.947C494.735 227.159 495.075 227.265 495.491 227.265ZM503.703 222.156H502.189V226.336C502.189 226.574 502.212 226.75 502.26 226.862C502.312 226.971 502.397 227.04 502.514 227.07C502.635 227.101 502.8 227.116 503.008 227.116H503.742V227.922C503.66 227.952 503.534 227.978 503.365 228C503.2 228.022 502.995 228.033 502.748 228.033C502.284 228.033 501.924 227.97 501.669 227.844C501.413 227.718 501.233 227.532 501.129 227.285C501.029 227.038 500.98 226.735 500.98 226.375V222.156H499.888V221.279H501.012L501.305 219.322H502.189V221.272H503.703V222.156Z" fill="white" fill-opacity="0.5"/>
<path d="M568.544 228.13C568.102 228.13 567.673 228.076 567.257 227.967C566.841 227.855 566.464 227.688 566.126 227.467C565.788 227.246 565.506 226.973 565.281 226.648C565.06 226.319 564.921 225.937 564.865 225.504H566.126C566.204 225.859 566.358 226.158 566.587 226.401C566.821 226.644 567.105 226.826 567.439 226.947C567.777 227.068 568.143 227.129 568.537 227.129C568.979 227.129 569.374 227.068 569.72 226.947C570.071 226.821 570.347 226.644 570.546 226.414C570.75 226.184 570.851 225.909 570.851 225.588C570.851 225.307 570.786 225.062 570.656 224.854C570.531 224.646 570.347 224.473 570.104 224.334C569.861 224.195 569.567 224.087 569.22 224.009L567.374 223.58C566.681 223.428 566.137 223.157 565.742 222.767C565.352 222.377 565.153 221.862 565.144 221.22C565.144 220.679 565.287 220.202 565.573 219.79C565.864 219.379 566.26 219.058 566.763 218.828C567.27 218.599 567.848 218.484 568.498 218.484C569.248 218.484 569.879 218.612 570.39 218.867C570.901 219.123 571.287 219.459 571.547 219.875C571.807 220.291 571.939 220.735 571.943 221.207H570.702C570.663 220.783 570.537 220.447 570.325 220.2C570.117 219.949 569.855 219.771 569.538 219.667C569.222 219.559 568.878 219.504 568.505 219.504C568.236 219.504 567.976 219.539 567.725 219.608C567.478 219.673 567.255 219.773 567.055 219.907C566.86 220.042 566.704 220.209 566.587 220.408C566.47 220.607 566.412 220.839 566.412 221.103C566.412 221.441 566.527 221.717 566.756 221.929C566.99 222.141 567.413 222.323 568.024 222.475L569.811 222.904C570.279 223.004 570.661 223.151 570.955 223.346C571.254 223.541 571.484 223.762 571.644 224.009C571.809 224.256 571.922 224.514 571.982 224.782C572.047 225.051 572.08 225.315 572.08 225.575C572.08 226.048 571.939 226.479 571.657 226.869C571.376 227.255 570.971 227.562 570.442 227.792C569.918 228.017 569.285 228.13 568.544 228.13ZM576.335 228.13C575.984 228.126 575.653 228.076 575.341 227.98C575.033 227.881 574.76 227.736 574.522 227.545C574.283 227.354 574.095 227.118 573.956 226.836C573.822 226.55 573.755 226.219 573.755 225.842V221.279H574.957V225.718C574.957 226.156 575.091 226.511 575.36 226.784C575.633 227.057 576.043 227.194 576.589 227.194C577.083 227.194 577.479 227.066 577.778 226.81C578.081 226.55 578.233 226.165 578.233 225.653V221.279H579.429V228H578.474L578.35 226.713C578.268 227.051 578.127 227.324 577.928 227.532C577.733 227.74 577.496 227.894 577.219 227.993C576.946 228.089 576.651 228.134 576.335 228.13ZM581.381 228V221.279H582.544V222.254C582.653 222.068 582.802 221.892 582.993 221.727C583.188 221.563 583.422 221.431 583.695 221.331C583.972 221.231 584.291 221.181 584.65 221.181C585.075 221.181 585.465 221.266 585.82 221.435C586.18 221.604 586.466 221.868 586.678 222.228C586.895 222.583 587.003 223.043 587.003 223.606V228H585.801V223.723C585.801 223.199 585.662 222.811 585.385 222.559C585.112 222.304 584.756 222.176 584.319 222.176C584.015 222.176 583.732 222.226 583.467 222.325C583.203 222.421 582.988 222.568 582.824 222.767C582.659 222.962 582.577 223.209 582.577 223.508V228H581.381Z" fill="#4B465C"/>
<path d="M568.544 228.13C568.102 228.13 567.673 228.076 567.257 227.967C566.841 227.855 566.464 227.688 566.126 227.467C565.788 227.246 565.506 226.973 565.281 226.648C565.06 226.319 564.921 225.937 564.865 225.504H566.126C566.204 225.859 566.358 226.158 566.587 226.401C566.821 226.644 567.105 226.826 567.439 226.947C567.777 227.068 568.143 227.129 568.537 227.129C568.979 227.129 569.374 227.068 569.72 226.947C570.071 226.821 570.347 226.644 570.546 226.414C570.75 226.184 570.851 225.909 570.851 225.588C570.851 225.307 570.786 225.062 570.656 224.854C570.531 224.646 570.347 224.473 570.104 224.334C569.861 224.195 569.567 224.087 569.22 224.009L567.374 223.58C566.681 223.428 566.137 223.157 565.742 222.767C565.352 222.377 565.153 221.862 565.144 221.22C565.144 220.679 565.287 220.202 565.573 219.79C565.864 219.379 566.26 219.058 566.763 218.828C567.27 218.599 567.848 218.484 568.498 218.484C569.248 218.484 569.879 218.612 570.39 218.867C570.901 219.123 571.287 219.459 571.547 219.875C571.807 220.291 571.939 220.735 571.943 221.207H570.702C570.663 220.783 570.537 220.447 570.325 220.2C570.117 219.949 569.855 219.771 569.538 219.667C569.222 219.559 568.878 219.504 568.505 219.504C568.236 219.504 567.976 219.539 567.725 219.608C567.478 219.673 567.255 219.773 567.055 219.907C566.86 220.042 566.704 220.209 566.587 220.408C566.47 220.607 566.412 220.839 566.412 221.103C566.412 221.441 566.527 221.717 566.756 221.929C566.99 222.141 567.413 222.323 568.024 222.475L569.811 222.904C570.279 223.004 570.661 223.151 570.955 223.346C571.254 223.541 571.484 223.762 571.644 224.009C571.809 224.256 571.922 224.514 571.982 224.782C572.047 225.051 572.08 225.315 572.08 225.575C572.08 226.048 571.939 226.479 571.657 226.869C571.376 227.255 570.971 227.562 570.442 227.792C569.918 228.017 569.285 228.13 568.544 228.13ZM576.335 228.13C575.984 228.126 575.653 228.076 575.341 227.98C575.033 227.881 574.76 227.736 574.522 227.545C574.283 227.354 574.095 227.118 573.956 226.836C573.822 226.55 573.755 226.219 573.755 225.842V221.279H574.957V225.718C574.957 226.156 575.091 226.511 575.36 226.784C575.633 227.057 576.043 227.194 576.589 227.194C577.083 227.194 577.479 227.066 577.778 226.81C578.081 226.55 578.233 226.165 578.233 225.653V221.279H579.429V228H578.474L578.35 226.713C578.268 227.051 578.127 227.324 577.928 227.532C577.733 227.74 577.496 227.894 577.219 227.993C576.946 228.089 576.651 228.134 576.335 228.13ZM581.381 228V221.279H582.544V222.254C582.653 222.068 582.802 221.892 582.993 221.727C583.188 221.563 583.422 221.431 583.695 221.331C583.972 221.231 584.291 221.181 584.65 221.181C585.075 221.181 585.465 221.266 585.82 221.435C586.18 221.604 586.466 221.868 586.678 222.228C586.895 222.583 587.003 223.043 587.003 223.606V228H585.801V223.723C585.801 223.199 585.662 222.811 585.385 222.559C585.112 222.304 584.756 222.176 584.319 222.176C584.015 222.176 583.732 222.226 583.467 222.325C583.203 222.421 582.988 222.568 582.824 222.767C582.659 222.962 582.577 223.209 582.577 223.508V228H581.381Z" fill="white" fill-opacity="0.5"/>
</svg>
