<svg width="310" height="161" viewBox="0 0 310 161" fill="none" xmlns="http://www.w3.org/2000/svg">
<mask id="path-1-inside-1_6719_1080" fill="white">
<path d="M0 131H310V161H0V131Z"/>
</mask>
<path d="M0 132H310V130H0V132Z" fill="#DBDADE" mask="url(#path-1-inside-1_6719_1080)"/>
<path d="M2.60599 156V148.518H0.792488V147.732C1.35582 147.732 1.79349 147.691 2.10549 147.608C2.41749 147.526 2.63849 147.4 2.76849 147.231C2.90282 147.062 2.97649 146.852 2.98949 146.601H3.84749V156H2.60599ZM6.28793 156V155.265V154.882C6.28793 154.401 6.37677 153.985 6.55443 153.634C6.73643 153.283 6.97477 152.977 7.26943 152.718C7.56843 152.453 7.89343 152.217 8.24443 152.009C8.59977 151.801 8.95293 151.602 9.30393 151.411C9.65927 151.216 9.98427 151.014 10.2789 150.806C10.5736 150.594 10.8098 150.356 10.9874 150.091C11.1694 149.823 11.2604 149.506 11.2604 149.142C11.2604 148.666 11.0914 148.278 10.7534 147.979C10.4198 147.68 9.96693 147.53 9.39493 147.53C8.7796 147.53 8.2856 147.704 7.91293 148.05C7.54027 148.397 7.3301 148.859 7.28243 149.435H6.08643C6.09943 148.893 6.23377 148.399 6.48943 147.953C6.7451 147.502 7.11993 147.143 7.61393 146.874C8.10793 146.605 8.71677 146.471 9.44043 146.471C10.0688 146.471 10.6148 146.584 11.0784 146.809C11.5421 147.03 11.8996 147.342 12.1509 147.745C12.4066 148.144 12.5344 148.609 12.5344 149.142C12.5344 149.628 12.4456 150.044 12.2679 150.39C12.0903 150.737 11.8541 151.038 11.5594 151.294C11.2691 151.545 10.9506 151.771 10.6039 151.97C10.2573 152.169 9.90843 152.362 9.55743 152.548C9.20643 152.73 8.88577 152.923 8.59543 153.127C8.3051 153.326 8.0711 153.556 7.89343 153.816C7.71577 154.076 7.62693 154.386 7.62693 154.745V154.934H12.5864V156H6.28793ZM16.0796 156.13C15.6462 156.13 15.2627 156.054 14.9291 155.902C14.5954 155.746 14.3332 155.523 14.1426 155.233C13.9562 154.943 13.8631 154.592 13.8631 154.18C13.8631 153.435 14.1231 152.88 14.6431 152.516C15.1631 152.152 15.9972 151.957 17.1456 151.931L18.3481 151.898V151.372C18.3481 150.96 18.2246 150.635 17.9776 150.397C17.7306 150.154 17.3471 150.033 16.8271 150.033C16.4414 150.037 16.1012 150.128 15.8066 150.306C15.5162 150.484 15.3277 150.774 15.2411 151.177H14.1816C14.2076 150.739 14.3311 150.371 14.5521 150.072C14.7731 149.769 15.0807 149.539 15.4751 149.383C15.8737 149.227 16.3439 149.149 16.8856 149.149C17.4706 149.149 17.9559 149.231 18.3416 149.396C18.7316 149.561 19.0219 149.803 19.2126 150.124C19.4076 150.445 19.5051 150.839 19.5051 151.307V156H18.4781L18.3936 154.739C18.1336 155.263 17.8021 155.627 17.3991 155.831C17.0004 156.03 16.5606 156.13 16.0796 156.13ZM16.4436 155.265C16.6689 155.265 16.8921 155.224 17.1131 155.142C17.3384 155.06 17.5442 154.949 17.7306 154.81C17.9169 154.667 18.0642 154.509 18.1726 154.336C18.2852 154.158 18.3437 153.976 18.3481 153.79V152.639L17.3471 152.659C16.8357 152.668 16.4067 152.72 16.0601 152.815C15.7177 152.91 15.4599 153.06 15.2866 153.263C15.1176 153.467 15.0331 153.734 15.0331 154.063C15.0331 154.44 15.1631 154.735 15.4231 154.947C15.6874 155.159 16.0276 155.265 16.4436 155.265ZM21.5585 156V149.279H22.7155V150.254C22.9018 149.959 23.1575 149.701 23.4825 149.48C23.8075 149.259 24.23 149.149 24.75 149.149C24.9926 149.149 25.2396 149.19 25.491 149.272C25.7466 149.355 25.9806 149.478 26.193 149.643C26.4053 149.808 26.57 150.009 26.687 150.247C26.895 149.918 27.1766 149.654 27.532 149.454C27.8873 149.251 28.2881 149.149 28.7345 149.149C28.9685 149.149 29.2133 149.186 29.469 149.259C29.7246 149.329 29.9608 149.454 30.1775 149.636C30.3985 149.814 30.5783 150.063 30.717 150.384C30.8556 150.7 30.925 151.108 30.925 151.606V156H29.716V151.723C29.716 151.316 29.651 151.001 29.521 150.78C29.391 150.555 29.2198 150.397 29.0075 150.306C28.7995 150.215 28.5763 150.169 28.338 150.169C28.13 150.169 27.909 150.211 27.675 150.293C27.441 150.375 27.2416 150.514 27.077 150.709C26.9123 150.904 26.83 151.17 26.83 151.508V156H25.634V151.372C25.634 151.108 25.5625 150.887 25.4195 150.709C25.2808 150.531 25.1053 150.397 24.893 150.306C24.685 150.215 24.477 150.169 24.269 150.169C24.0393 150.169 23.8075 150.215 23.5735 150.306C23.3438 150.397 23.1488 150.542 22.9885 150.741C22.8325 150.936 22.7545 151.192 22.7545 151.508V156H21.5585Z" fill="#8B909A"/>
<path d="M100.704 146.471C101.306 146.471 101.846 146.571 102.323 146.77C102.799 146.969 103.176 147.26 103.454 147.641C103.731 148.022 103.87 148.486 103.87 149.032C103.87 149.543 103.731 149.972 103.454 150.319C103.181 150.666 102.827 150.93 102.394 151.112C102.71 151.173 103.012 151.32 103.298 151.554C103.588 151.788 103.826 152.072 104.013 152.405C104.199 152.739 104.292 153.088 104.292 153.452C104.292 153.994 104.143 154.466 103.844 154.869C103.549 155.272 103.133 155.586 102.596 155.811C102.058 156.033 101.428 156.143 100.704 156.143C99.9847 156.143 99.3564 156.033 98.819 155.811C98.2817 155.586 97.8635 155.272 97.5645 154.869C97.2699 154.466 97.1225 153.994 97.1225 153.452C97.1225 153.088 97.2135 152.739 97.3955 152.405C97.5819 152.072 97.8202 151.788 98.1105 151.554C98.4009 151.32 98.7042 151.173 99.0205 151.112C98.5915 150.93 98.2362 150.666 97.9545 150.319C97.6772 149.972 97.5385 149.543 97.5385 149.032C97.5385 148.486 97.6772 148.022 97.9545 147.641C98.2319 147.26 98.6089 146.969 99.0855 146.77C99.5665 146.571 100.106 146.471 100.704 146.471ZM100.704 150.605C101.276 150.605 101.74 150.464 102.095 150.182C102.455 149.901 102.635 149.509 102.635 149.006C102.635 148.499 102.455 148.1 102.095 147.81C101.735 147.515 101.272 147.368 100.704 147.368C100.136 147.368 99.6727 147.515 99.313 147.81C98.9534 148.105 98.7735 148.503 98.7735 149.006C98.7735 149.509 98.9534 149.901 99.313 150.182C99.6727 150.464 100.136 150.605 100.704 150.605ZM100.704 155.168C101.402 155.168 101.959 155.012 102.375 154.7C102.791 154.384 102.999 153.965 102.999 153.445C102.999 153.103 102.903 152.798 102.713 152.529C102.526 152.26 102.262 152.05 101.92 151.898C101.577 151.742 101.172 151.664 100.704 151.664C100.24 151.664 99.8374 151.742 99.495 151.898C99.157 152.05 98.8927 152.26 98.702 152.529C98.5157 152.798 98.4225 153.103 98.4225 153.445C98.4225 153.965 98.6284 154.384 99.04 154.7C99.456 155.012 100.011 155.168 100.704 155.168ZM107.769 156.13C107.336 156.13 106.952 156.054 106.619 155.902C106.285 155.746 106.023 155.523 105.832 155.233C105.646 154.943 105.553 154.592 105.553 154.18C105.553 153.435 105.813 152.88 106.333 152.516C106.853 152.152 107.687 151.957 108.835 151.931L110.038 151.898V151.372C110.038 150.96 109.914 150.635 109.667 150.397C109.42 150.154 109.037 150.033 108.517 150.033C108.131 150.037 107.791 150.128 107.496 150.306C107.206 150.484 107.017 150.774 106.931 151.177H105.871C105.897 150.739 106.021 150.371 106.242 150.072C106.463 149.769 106.77 149.539 107.165 149.383C107.563 149.227 108.033 149.149 108.575 149.149C109.16 149.149 109.645 149.231 110.031 149.396C110.421 149.561 110.711 149.803 110.902 150.124C111.097 150.445 111.195 150.839 111.195 151.307V156H110.168L110.083 154.739C109.823 155.263 109.492 155.627 109.089 155.831C108.69 156.03 108.25 156.13 107.769 156.13ZM108.133 155.265C108.358 155.265 108.582 155.224 108.803 155.142C109.028 155.06 109.234 154.949 109.42 154.81C109.606 154.667 109.754 154.509 109.862 154.336C109.975 154.158 110.033 153.976 110.038 153.79V152.639L109.037 152.659C108.525 152.668 108.096 152.72 107.75 152.815C107.407 152.91 107.149 153.06 106.976 153.263C106.807 153.467 106.723 153.734 106.723 154.063C106.723 154.44 106.853 154.735 107.113 154.947C107.377 155.159 107.717 155.265 108.133 155.265ZM113.248 156V149.279H114.405V150.254C114.591 149.959 114.847 149.701 115.172 149.48C115.497 149.259 115.919 149.149 116.439 149.149C116.682 149.149 116.929 149.19 117.18 149.272C117.436 149.355 117.67 149.478 117.882 149.643C118.095 149.808 118.259 150.009 118.376 150.247C118.584 149.918 118.866 149.654 119.221 149.454C119.577 149.251 119.978 149.149 120.424 149.149C120.658 149.149 120.903 149.186 121.158 149.259C121.414 149.329 121.65 149.454 121.867 149.636C122.088 149.814 122.268 150.063 122.406 150.384C122.545 150.7 122.614 151.108 122.614 151.606V156H121.405V151.723C121.405 151.316 121.34 151.001 121.21 150.78C121.08 150.555 120.909 150.397 120.697 150.306C120.489 150.215 120.266 150.169 120.027 150.169C119.819 150.169 119.598 150.211 119.364 150.293C119.13 150.375 118.931 150.514 118.766 150.709C118.602 150.904 118.519 151.17 118.519 151.508V156H117.323V151.372C117.323 151.108 117.252 150.887 117.109 150.709C116.97 150.531 116.795 150.397 116.582 150.306C116.374 150.215 116.166 150.169 115.958 150.169C115.729 150.169 115.497 150.215 115.263 150.306C115.033 150.397 114.838 150.542 114.678 150.741C114.522 150.936 114.444 151.192 114.444 151.508V156H113.248Z" fill="#8B909A"/>
<path d="M193.414 146.601H194.636V152.542H196.196V153.601H194.636V156H193.46V153.601H189.033V152.503L193.414 146.601ZM190.184 152.542H193.434V148.18L190.184 152.542ZM197.599 158.093V149.279H198.795L198.808 150.449C198.886 150.31 198.986 150.165 199.107 150.013C199.233 149.862 199.384 149.721 199.562 149.591C199.744 149.461 199.954 149.355 200.192 149.272C200.435 149.19 200.71 149.149 201.018 149.149C201.555 149.149 202.028 149.272 202.435 149.519C202.847 149.762 203.167 150.135 203.397 150.637C203.627 151.14 203.741 151.777 203.741 152.548C203.741 153.32 203.629 153.972 203.403 154.505C203.182 155.034 202.862 155.437 202.441 155.714C202.021 155.991 201.514 156.13 200.92 156.13C200.621 156.13 200.355 156.087 200.121 156C199.891 155.918 199.69 155.809 199.516 155.675C199.347 155.536 199.204 155.389 199.087 155.233C198.975 155.077 198.882 154.927 198.808 154.784V158.093H197.599ZM200.693 155.194C201.248 155.194 201.7 154.984 202.051 154.563C202.402 154.139 202.578 153.48 202.578 152.587C202.578 151.82 202.418 151.212 202.097 150.761C201.776 150.31 201.308 150.085 200.693 150.085C200.069 150.085 199.597 150.317 199.276 150.78C198.955 151.24 198.795 151.842 198.795 152.587C198.795 153.068 198.866 153.506 199.009 153.9C199.152 154.295 199.365 154.609 199.646 154.843C199.928 155.077 200.277 155.194 200.693 155.194ZM205.318 156V149.279H206.475V150.254C206.661 149.959 206.917 149.701 207.242 149.48C207.567 149.259 207.989 149.149 208.509 149.149C208.752 149.149 208.999 149.19 209.25 149.272C209.506 149.355 209.74 149.478 209.952 149.643C210.165 149.808 210.329 150.009 210.446 150.247C210.654 149.918 210.936 149.654 211.291 149.454C211.647 149.251 212.047 149.149 212.494 149.149C212.728 149.149 212.973 149.186 213.228 149.259C213.484 149.329 213.72 149.454 213.937 149.636C214.158 149.814 214.338 150.063 214.476 150.384C214.615 150.7 214.684 151.108 214.684 151.606V156H213.475V151.723C213.475 151.316 213.41 151.001 213.28 150.78C213.15 150.555 212.979 150.397 212.767 150.306C212.559 150.215 212.336 150.169 212.097 150.169C211.889 150.169 211.668 150.211 211.434 150.293C211.2 150.375 211.001 150.514 210.836 150.709C210.672 150.904 210.589 151.17 210.589 151.508V156H209.393V151.372C209.393 151.108 209.322 150.887 209.179 150.709C209.04 150.531 208.865 150.397 208.652 150.306C208.444 150.215 208.236 150.169 208.028 150.169C207.799 150.169 207.567 150.215 207.333 150.306C207.103 150.397 206.908 150.542 206.748 150.741C206.592 150.936 206.514 151.192 206.514 151.508V156H205.318Z" fill="#8B909A"/>
<path d="M282.641 156V148.518H280.827V147.732C281.39 147.732 281.828 147.691 282.14 147.608C282.452 147.526 282.673 147.4 282.803 147.231C282.937 147.062 283.011 146.852 283.024 146.601H283.882V156H282.641ZM287.935 156V148.518H286.121V147.732C286.684 147.732 287.122 147.691 287.434 147.608C287.746 147.526 287.967 147.4 288.097 147.231C288.231 147.062 288.305 146.852 288.318 146.601H289.176V156H287.935ZM291.805 158.093V149.279H293.001L293.014 150.449C293.092 150.31 293.192 150.165 293.313 150.013C293.439 149.862 293.59 149.721 293.768 149.591C293.95 149.461 294.16 149.355 294.399 149.272C294.641 149.19 294.916 149.149 295.224 149.149C295.761 149.149 296.234 149.272 296.641 149.519C297.053 149.762 297.373 150.135 297.603 150.637C297.833 151.14 297.948 151.777 297.948 152.548C297.948 153.32 297.835 153.972 297.61 154.505C297.389 155.034 297.068 155.437 296.648 155.714C296.227 155.991 295.72 156.13 295.127 156.13C294.828 156.13 294.561 156.087 294.327 156C294.097 155.918 293.896 155.809 293.723 155.675C293.554 155.536 293.411 155.389 293.294 155.233C293.181 155.077 293.088 154.927 293.014 154.784V158.093H291.805ZM294.899 155.194C295.454 155.194 295.907 154.984 296.258 154.563C296.609 154.139 296.784 153.48 296.784 152.587C296.784 151.82 296.624 151.212 296.303 150.761C295.982 150.31 295.514 150.085 294.899 150.085C294.275 150.085 293.803 150.317 293.482 150.78C293.161 151.24 293.001 151.842 293.001 152.587C293.001 153.068 293.073 153.506 293.216 153.9C293.359 154.295 293.571 154.609 293.853 154.843C294.134 155.077 294.483 155.194 294.899 155.194ZM299.524 156V149.279H300.681V150.254C300.867 149.959 301.123 149.701 301.448 149.48C301.773 149.259 302.195 149.149 302.715 149.149C302.958 149.149 303.205 149.19 303.456 149.272C303.712 149.355 303.946 149.478 304.158 149.643C304.371 149.808 304.535 150.009 304.652 150.247C304.86 149.918 305.142 149.654 305.497 149.454C305.853 149.251 306.253 149.149 306.7 149.149C306.934 149.149 307.179 149.186 307.434 149.259C307.69 149.329 307.926 149.454 308.143 149.636C308.364 149.814 308.544 150.063 308.682 150.384C308.821 150.7 308.89 151.108 308.89 151.606V156H307.681V151.723C307.681 151.316 307.616 151.001 307.486 150.78C307.356 150.555 307.185 150.397 306.973 150.306C306.765 150.215 306.542 150.169 306.303 150.169C306.095 150.169 305.874 150.211 305.64 150.293C305.406 150.375 305.207 150.514 305.042 150.709C304.878 150.904 304.795 151.17 304.795 151.508V156H303.599V151.372C303.599 151.108 303.528 150.887 303.385 150.709C303.246 150.531 303.071 150.397 302.858 150.306C302.65 150.215 302.442 150.169 302.234 150.169C302.005 150.169 301.773 150.215 301.539 150.306C301.309 150.397 301.114 150.542 300.954 150.741C300.798 150.936 300.72 151.192 300.72 151.508V156H299.524Z" fill="#8B909A"/>
<path d="M1 130.5H24.5L53.5 0.5L80 130.5H115L138.5 46.5L156.5 130.5H181L205 23" stroke="#0F60FF" stroke-width="2"/>
</svg>
