<svg width="364" height="151" viewBox="0 0 364 151" fill="none" xmlns="http://www.w3.org/2000/svg">
<path d="M2.915 145V137.77H4.425L6.46 143.52L8.525 137.77H10.025V145H8.93V139.24L6.93 145H5.995L4.005 139.285V145H2.915ZM14.4555 145.1C13.7989 145.1 13.2305 144.955 12.7505 144.665C12.2739 144.372 11.9055 143.95 11.6455 143.4C11.3889 142.847 11.2605 142.18 11.2605 141.4C11.2605 140.613 11.3905 139.943 11.6505 139.39C11.9139 138.833 12.2839 138.408 12.7605 138.115C13.2405 137.818 13.8055 137.67 14.4555 137.67C15.1022 137.67 15.6622 137.818 16.1355 138.115C16.6122 138.408 16.9789 138.833 17.2355 139.39C17.4955 139.943 17.6255 140.613 17.6255 141.4C17.6255 142.18 17.4972 142.845 17.2405 143.395C16.9839 143.945 16.6172 144.367 16.1405 144.66C15.6672 144.953 15.1055 145.1 14.4555 145.1ZM14.4555 144.185C14.8755 144.185 15.2339 144.088 15.5305 143.895C15.8305 143.702 16.0589 143.4 16.2155 142.99C16.3722 142.58 16.4505 142.055 16.4505 141.415C16.4505 140.758 16.3705 140.222 16.2105 139.805C16.0539 139.388 15.8255 139.082 15.5255 138.885C15.2289 138.685 14.8722 138.585 14.4555 138.585C14.0389 138.585 13.6789 138.685 13.3755 138.885C13.0755 139.085 12.8439 139.393 12.6805 139.81C12.5172 140.227 12.4355 140.762 12.4355 141.415C12.4355 142.058 12.5172 142.585 12.6805 142.995C12.8439 143.402 13.0755 143.702 13.3755 143.895C13.6789 144.088 14.0389 144.185 14.4555 144.185ZM23.5777 137.77H24.6527V145H23.6927L19.9327 139.495V145H18.8627V137.77H19.8977L23.5777 143.16V137.77Z" fill="#8B909A"/>
<path d="M62.22 138.745V137.77H67.775V138.745H65.59V145H64.51V138.745H62.22ZM74.1361 142.43C74.1361 142.993 74.0428 143.475 73.8561 143.875C73.6694 144.272 73.3761 144.575 72.9761 144.785C72.5794 144.995 72.0611 145.1 71.4211 145.1C70.7744 145.1 70.2511 144.993 69.8511 144.78C69.4544 144.567 69.1644 144.255 68.9811 143.845C68.8011 143.435 68.7111 142.935 68.7111 142.345V137.77H69.8161V142.48C69.8161 143.053 69.9561 143.48 70.2361 143.76C70.5194 144.037 70.9144 144.175 71.4211 144.175C71.7578 144.175 72.0478 144.115 72.2911 143.995C72.5378 143.872 72.7261 143.685 72.8561 143.435C72.9861 143.182 73.0511 142.863 73.0511 142.48V137.77H74.1361V142.43ZM75.5814 145V137.77H80.2514L80.2464 138.7H76.6564V140.895H79.8614V141.81H76.6514V144.055L80.3364 144.06V145H75.5814Z" fill="#8B909A"/>
<path d="M126.355 137.77L124.24 145H123.3L121.775 139.635L120.23 145H119.315L117.22 137.77H118.29L119.82 143.26L121.37 137.77H122.19L123.74 143.26L125.29 137.77H126.355ZM127.285 145V137.77H131.955L131.95 138.7H128.36V140.895H131.565V141.81H128.355V144.055L132.04 144.06V145H127.285ZM133.433 137.77C133.46 137.77 133.538 137.772 133.668 137.775C133.801 137.775 133.961 137.775 134.148 137.775C134.335 137.772 134.525 137.772 134.718 137.775C134.915 137.775 135.09 137.777 135.243 137.78C136.126 137.793 136.845 137.94 137.398 138.22C137.951 138.5 138.356 138.903 138.613 139.43C138.873 139.953 139.003 140.592 139.003 141.345C139.003 142.128 138.865 142.793 138.588 143.34C138.311 143.883 137.888 144.297 137.318 144.58C136.751 144.86 136.033 145 135.163 145H133.433V137.77ZM134.523 138.67V144.1H135.173C135.72 144.1 136.195 144.012 136.598 143.835C137.005 143.655 137.32 143.365 137.543 142.965C137.766 142.562 137.878 142.023 137.878 141.35C137.878 140.69 137.771 140.165 137.558 139.775C137.345 139.382 137.038 139.1 136.638 138.93C136.241 138.757 135.763 138.67 135.203 138.67H134.523Z" fill="#8B909A"/>
<path d="M176.22 138.745V137.77H181.775V138.745H179.59V145H178.51V138.745H176.22ZM187.481 141.73H183.781V145H182.711V137.77H183.781V140.8H187.481V137.77H188.551V145H187.481V141.73ZM195.534 142.43C195.534 142.993 195.44 143.475 195.254 143.875C195.067 144.272 194.774 144.575 194.374 144.785C193.977 144.995 193.459 145.1 192.819 145.1C192.172 145.1 191.649 144.993 191.249 144.78C190.852 144.567 190.562 144.255 190.379 143.845C190.199 143.435 190.109 142.935 190.109 142.345V137.77H191.214V142.48C191.214 143.053 191.354 143.48 191.634 143.76C191.917 144.037 192.312 144.175 192.819 144.175C193.155 144.175 193.445 144.115 193.689 143.995C193.935 143.872 194.124 143.685 194.254 143.435C194.384 143.182 194.449 142.863 194.449 142.48V137.77H195.534V142.43Z" fill="#8B909A"/>
<path d="M233.915 137.77H238.535L238.53 138.69H235.005V140.925H238.14V141.835H235.005V145H233.915V137.77ZM244.991 145H243.866L242.586 141.975H240.771V145H239.701V137.77H242.571C243.108 137.77 243.553 137.853 243.906 138.02C244.26 138.183 244.523 138.417 244.696 138.72C244.87 139.023 244.956 139.382 244.956 139.795C244.956 140.185 244.89 140.51 244.756 140.77C244.626 141.03 244.456 141.242 244.246 141.405C244.04 141.568 243.821 141.697 243.591 141.79L244.991 145ZM242.281 141.11C242.785 141.11 243.175 141.002 243.451 140.785C243.728 140.565 243.866 140.252 243.866 139.845C243.866 139.445 243.74 139.142 243.486 138.935C243.236 138.728 242.896 138.625 242.466 138.625H240.771V141.11H242.281ZM246.318 137.77H247.388V145H246.318V137.77Z" fill="#8B909A"/>
<path d="M288.44 145.1C288.097 145.1 287.762 145.057 287.435 144.97C287.108 144.883 286.812 144.755 286.545 144.585C286.278 144.412 286.057 144.197 285.88 143.94C285.707 143.683 285.598 143.383 285.555 143.04H286.67C286.727 143.3 286.838 143.518 287.005 143.695C287.175 143.872 287.383 144.005 287.63 144.095C287.877 144.185 288.145 144.23 288.435 144.23C288.755 144.23 289.042 144.187 289.295 144.1C289.552 144.01 289.755 143.883 289.905 143.72C290.055 143.553 290.13 143.353 290.13 143.12C290.13 142.91 290.078 142.732 289.975 142.585C289.875 142.438 289.732 142.317 289.545 142.22C289.362 142.12 289.14 142.042 288.88 141.985L287.51 141.675C286.973 141.562 286.55 141.352 286.24 141.045C285.933 140.735 285.778 140.325 285.775 139.815C285.772 139.388 285.883 139.015 286.11 138.695C286.34 138.375 286.653 138.127 287.05 137.95C287.447 137.77 287.898 137.68 288.405 137.68C288.995 137.68 289.49 137.778 289.89 137.975C290.293 138.172 290.598 138.432 290.805 138.755C291.012 139.075 291.117 139.423 291.12 139.8H290.025C289.998 139.493 289.908 139.25 289.755 139.07C289.602 138.89 289.408 138.762 289.175 138.685C288.945 138.605 288.692 138.565 288.415 138.565C288.215 138.565 288.023 138.59 287.84 138.64C287.657 138.69 287.495 138.763 287.355 138.86C287.215 138.957 287.103 139.077 287.02 139.22C286.94 139.36 286.9 139.522 286.9 139.705C286.9 139.952 286.983 140.152 287.15 140.305C287.317 140.458 287.623 140.59 288.07 140.7L289.41 141.005C289.793 141.085 290.103 141.203 290.34 141.36C290.577 141.513 290.758 141.688 290.885 141.885C291.012 142.082 291.098 142.287 291.145 142.5C291.192 142.71 291.215 142.912 291.215 143.105C291.215 143.478 291.103 143.817 290.88 144.12C290.657 144.42 290.338 144.658 289.925 144.835C289.512 145.012 289.017 145.1 288.44 145.1ZM291.806 145L294.416 137.77H295.596L298.201 145H297.121L296.441 143.105H293.586L292.891 145H291.806ZM293.841 142.135H296.166L295.011 138.82L293.841 142.135ZM297.877 138.745V137.77H303.432V138.745H301.247V145H300.167V138.745H297.877Z" fill="#8B909A"/>
<path d="M343.44 145.1C343.097 145.1 342.762 145.057 342.435 144.97C342.108 144.883 341.812 144.755 341.545 144.585C341.278 144.412 341.057 144.197 340.88 143.94C340.707 143.683 340.598 143.383 340.555 143.04H341.67C341.727 143.3 341.838 143.518 342.005 143.695C342.175 143.872 342.383 144.005 342.63 144.095C342.877 144.185 343.145 144.23 343.435 144.23C343.755 144.23 344.042 144.187 344.295 144.1C344.552 144.01 344.755 143.883 344.905 143.72C345.055 143.553 345.13 143.353 345.13 143.12C345.13 142.91 345.078 142.732 344.975 142.585C344.875 142.438 344.732 142.317 344.545 142.22C344.362 142.12 344.14 142.042 343.88 141.985L342.51 141.675C341.973 141.562 341.55 141.352 341.24 141.045C340.933 140.735 340.778 140.325 340.775 139.815C340.772 139.388 340.883 139.015 341.11 138.695C341.34 138.375 341.653 138.127 342.05 137.95C342.447 137.77 342.898 137.68 343.405 137.68C343.995 137.68 344.49 137.778 344.89 137.975C345.293 138.172 345.598 138.432 345.805 138.755C346.012 139.075 346.117 139.423 346.12 139.8H345.025C344.998 139.493 344.908 139.25 344.755 139.07C344.602 138.89 344.408 138.762 344.175 138.685C343.945 138.605 343.692 138.565 343.415 138.565C343.215 138.565 343.023 138.59 342.84 138.64C342.657 138.69 342.495 138.763 342.355 138.86C342.215 138.957 342.103 139.077 342.02 139.22C341.94 139.36 341.9 139.522 341.9 139.705C341.9 139.952 341.983 140.152 342.15 140.305C342.317 140.458 342.623 140.59 343.07 140.7L344.41 141.005C344.793 141.085 345.103 141.203 345.34 141.36C345.577 141.513 345.758 141.688 345.885 141.885C346.012 142.082 346.098 142.287 346.145 142.5C346.192 142.71 346.215 142.912 346.215 143.105C346.215 143.478 346.103 143.817 345.88 144.12C345.657 144.42 345.338 144.658 344.925 144.835C344.512 145.012 344.017 145.1 343.44 145.1ZM352.927 142.43C352.927 142.993 352.834 143.475 352.647 143.875C352.46 144.272 352.167 144.575 351.767 144.785C351.37 144.995 350.852 145.1 350.212 145.1C349.565 145.1 349.042 144.993 348.642 144.78C348.245 144.567 347.955 144.255 347.772 143.845C347.592 143.435 347.502 142.935 347.502 142.345V137.77H348.607V142.48C348.607 143.053 348.747 143.48 349.027 143.76C349.31 144.037 349.705 144.175 350.212 144.175C350.549 144.175 350.839 144.115 351.082 143.995C351.329 143.872 351.517 143.685 351.647 143.435C351.777 143.182 351.842 142.863 351.842 142.48V137.77H352.927V142.43ZM359.087 137.77H360.162V145H359.202L355.442 139.495V145H354.372V137.77H355.407L359.087 143.16V137.77Z" fill="#8B909A"/>
<path d="M102 59.4067C46.8 56.2067 12.3333 74.0734 2 83.4067V102H362V27.4067C334 5.80671 262.333 26.4067 230 39.4067C210.333 47.4067 157.2 62.6067 102 59.4067Z" fill="url(#paint0_linear_6719_1079)"/>
<path d="M2 83.4067C12.3333 74.0734 46.8 56.2067 102 59.4067C157.2 62.6067 210.333 47.4067 230 39.4067C262.333 26.4067 334 5.80671 362 27.4067" stroke="#0F60FF" stroke-width="4" stroke-linecap="round"/>
<path d="M102 89.4067C46.8 86.2067 12.3333 104.073 2 113.407V132H362V57.4067C334 35.8067 262.333 56.4067 230 69.4067C210.333 77.4067 157.2 92.6067 102 89.4067Z" fill="url(#paint1_linear_6719_1079)"/>
<path d="M2 113.407C12.3333 104.073 46.8 86.2067 102 89.4067C157.2 92.6067 210.333 77.4067 230 69.4067C262.333 56.4067 334 35.8067 362 57.4067" stroke="#0FB7FF" stroke-width="4" stroke-linecap="round"/>
<circle cx="6" cy="8" r="4" fill="#0F60FF"/>
<path d="M18.128 12.12C17.716 12.12 17.314 12.068 16.922 11.964C16.53 11.86 16.174 11.706 15.854 11.502C15.534 11.294 15.268 11.036 15.056 10.728C14.848 10.42 14.718 10.06 14.666 9.648H16.004C16.072 9.96 16.206 10.222 16.406 10.434C16.61 10.646 16.86 10.806 17.156 10.914C17.452 11.022 17.774 11.076 18.122 11.076C18.506 11.076 18.85 11.024 19.154 10.92C19.462 10.812 19.706 10.66 19.886 10.464C20.066 10.264 20.156 10.024 20.156 9.744C20.156 9.492 20.094 9.278 19.97 9.102C19.85 8.926 19.678 8.78 19.454 8.664C19.234 8.544 18.968 8.45 18.656 8.382L17.012 8.01C16.368 7.874 15.86 7.622 15.488 7.254C15.12 6.882 14.934 6.39 14.93 5.778C14.926 5.266 15.06 4.818 15.332 4.434C15.608 4.05 15.984 3.752 16.46 3.54C16.936 3.324 17.478 3.216 18.086 3.216C18.794 3.216 19.388 3.334 19.868 3.57C20.352 3.806 20.718 4.118 20.966 4.506C21.214 4.89 21.34 5.308 21.344 5.76H20.03C19.998 5.392 19.89 5.1 19.706 4.884C19.522 4.668 19.29 4.514 19.01 4.422C18.734 4.326 18.43 4.278 18.098 4.278C17.858 4.278 17.628 4.308 17.408 4.368C17.188 4.428 16.994 4.516 16.826 4.632C16.658 4.748 16.524 4.892 16.424 5.064C16.328 5.232 16.28 5.426 16.28 5.646C16.28 5.942 16.38 6.182 16.58 6.366C16.78 6.55 17.148 6.708 17.684 6.84L19.292 7.206C19.752 7.302 20.124 7.444 20.408 7.632C20.692 7.816 20.91 8.026 21.062 8.262C21.214 8.498 21.318 8.744 21.374 9C21.43 9.252 21.458 9.494 21.458 9.726C21.458 10.174 21.324 10.58 21.056 10.944C20.788 11.304 20.406 11.59 19.91 11.802C19.414 12.014 18.82 12.12 18.128 12.12ZM24.4677 12.12C24.0677 12.12 23.7117 12.048 23.3997 11.904C23.0917 11.76 22.8497 11.552 22.6737 11.28C22.4977 11.008 22.4097 10.68 22.4097 10.296C22.4097 9.608 22.6537 9.094 23.1417 8.754C23.6297 8.414 24.4077 8.234 25.4757 8.214L26.4957 8.184V7.734C26.4957 7.378 26.3897 7.098 26.1777 6.894C25.9657 6.69 25.6397 6.59 25.1997 6.594C24.8677 6.594 24.5717 6.67 24.3117 6.822C24.0557 6.974 23.8877 7.224 23.8077 7.572H22.6917C22.7157 7.16 22.8337 6.814 23.0457 6.534C23.2617 6.25 23.5577 6.036 23.9337 5.892C24.3097 5.748 24.7517 5.676 25.2597 5.676C25.8237 5.676 26.2877 5.754 26.6517 5.91C27.0157 6.062 27.2857 6.286 27.4617 6.582C27.6417 6.878 27.7317 7.238 27.7317 7.662V12H26.6457L26.5437 10.86C26.3117 11.336 26.0177 11.666 25.6617 11.85C25.3097 12.03 24.9117 12.12 24.4677 12.12ZM24.8697 11.226C25.0657 11.226 25.2597 11.192 25.4517 11.124C25.6437 11.052 25.8177 10.956 25.9737 10.836C26.1297 10.712 26.2537 10.574 26.3457 10.422C26.4417 10.27 26.4917 10.114 26.4957 9.954V8.928L25.6557 8.946C25.2277 8.95 24.8637 8.994 24.5637 9.078C24.2677 9.162 24.0397 9.292 23.8797 9.468C23.7237 9.644 23.6457 9.878 23.6457 10.17C23.6457 10.502 23.7617 10.762 23.9937 10.95C24.2257 11.134 24.5177 11.226 24.8697 11.226ZM30.9763 12.084C30.6083 12.084 30.3123 12.036 30.0883 11.94C29.8683 11.844 29.7003 11.716 29.5843 11.556C29.4683 11.392 29.3903 11.208 29.3503 11.004C29.3143 10.796 29.2963 10.582 29.2963 10.362V3.084H30.5623V10.23C30.5623 10.518 30.6183 10.738 30.7303 10.89C30.8463 11.042 31.0223 11.128 31.2583 11.148L31.5823 11.16V11.976C31.4823 12.008 31.3783 12.034 31.2703 12.054C31.1663 12.074 31.0683 12.084 30.9763 12.084ZM33.5908 9.198C33.5908 9.57 33.6508 9.904 33.7708 10.2C33.8948 10.492 34.0808 10.724 34.3288 10.896C34.5768 11.064 34.8848 11.148 35.2528 11.148C35.6208 11.148 35.9388 11.064 36.2068 10.896C36.4788 10.728 36.6568 10.478 36.7408 10.146H37.9288C37.8568 10.57 37.6868 10.93 37.4188 11.226C37.1548 11.522 36.8348 11.746 36.4588 11.898C36.0828 12.046 35.6888 12.12 35.2768 12.12C34.6888 12.12 34.1708 11.994 33.7228 11.742C33.2748 11.486 32.9248 11.122 32.6728 10.65C32.4248 10.178 32.3008 9.616 32.3008 8.964C32.3008 8.32 32.4148 7.752 32.6428 7.26C32.8708 6.764 33.2008 6.376 33.6328 6.096C34.0648 5.816 34.5848 5.676 35.1928 5.676C35.7928 5.676 36.2968 5.804 36.7048 6.06C37.1168 6.316 37.4288 6.676 37.6408 7.14C37.8528 7.6 37.9588 8.144 37.9588 8.772V9.198H33.5908ZM33.5908 8.364H36.7348C36.7348 8.04 36.6788 7.746 36.5668 7.482C36.4548 7.214 36.2828 7.004 36.0508 6.852C35.8228 6.696 35.5348 6.618 35.1868 6.618C34.8308 6.618 34.5348 6.704 34.2988 6.876C34.0628 7.048 33.8848 7.268 33.7648 7.536C33.6488 7.804 33.5908 8.08 33.5908 8.364ZM41.391 12.12C40.959 12.12 40.553 12.052 40.173 11.916C39.797 11.78 39.481 11.566 39.225 11.274C38.973 10.982 38.815 10.608 38.751 10.152H39.897C39.949 10.388 40.047 10.584 40.191 10.74C40.339 10.892 40.515 11.006 40.719 11.082C40.927 11.154 41.149 11.19 41.385 11.19C41.777 11.19 42.093 11.12 42.333 10.98C42.577 10.836 42.699 10.616 42.699 10.32C42.699 10.108 42.633 9.938 42.501 9.81C42.373 9.682 42.169 9.588 41.889 9.528L40.653 9.234C40.141 9.114 39.731 8.924 39.423 8.664C39.115 8.4 38.959 8.032 38.955 7.56C38.955 7.196 39.045 6.872 39.225 6.588C39.409 6.304 39.681 6.082 40.041 5.922C40.401 5.758 40.849 5.676 41.385 5.676C42.085 5.676 42.647 5.832 43.071 6.144C43.495 6.456 43.715 6.908 43.731 7.5H42.621C42.581 7.216 42.451 6.994 42.231 6.834C42.015 6.67 41.729 6.588 41.373 6.588C41.005 6.588 40.703 6.662 40.467 6.81C40.231 6.954 40.113 7.176 40.113 7.476C40.113 7.68 40.199 7.842 40.371 7.962C40.543 8.078 40.801 8.174 41.145 8.25L42.321 8.544C42.625 8.624 42.875 8.73 43.071 8.862C43.267 8.99 43.421 9.132 43.533 9.288C43.645 9.444 43.723 9.606 43.767 9.774C43.815 9.942 43.839 10.1 43.839 10.248C43.839 10.64 43.739 10.976 43.539 11.256C43.343 11.532 43.061 11.746 42.693 11.898C42.329 12.046 41.895 12.12 41.391 12.12Z" fill="#23272E"/>
<circle cx="65" cy="8" r="4" fill="#0FB7FF"/>
<path d="M77.38 3.204C78.004 3.204 78.558 3.332 79.042 3.588C79.526 3.844 79.914 4.188 80.206 4.62C80.502 5.052 80.678 5.53 80.734 6.054H79.366C79.306 5.726 79.19 5.43 79.018 5.166C78.85 4.898 78.626 4.688 78.346 4.536C78.066 4.38 77.734 4.302 77.35 4.302C76.858 4.302 76.44 4.418 76.096 4.65C75.752 4.882 75.49 5.244 75.31 5.736C75.134 6.228 75.046 6.862 75.046 7.638C75.046 8.81 75.244 9.668 75.64 10.212C76.036 10.752 76.606 11.022 77.35 11.022C77.734 11.022 78.066 10.94 78.346 10.776C78.626 10.608 78.85 10.386 79.018 10.11C79.19 9.83 79.306 9.526 79.366 9.198H80.734C80.686 9.578 80.586 9.944 80.434 10.296C80.282 10.644 80.07 10.956 79.798 11.232C79.53 11.508 79.196 11.726 78.796 11.886C78.396 12.042 77.924 12.12 77.38 12.12C76.596 12.12 75.924 11.94 75.364 11.58C74.804 11.216 74.374 10.7 74.074 10.032C73.778 9.36 73.63 8.556 73.63 7.62C73.63 6.688 73.778 5.894 74.074 5.238C74.37 4.578 74.798 4.074 75.358 3.726C75.918 3.378 76.592 3.204 77.38 3.204ZM84.4938 12.12C83.9138 12.12 83.4058 11.996 82.9698 11.748C82.5378 11.496 82.2018 11.132 81.9618 10.656C81.7258 10.18 81.6078 9.604 81.6078 8.928C81.6078 8.276 81.7198 7.706 81.9438 7.218C82.1718 6.73 82.5018 6.352 82.9338 6.084C83.3658 5.812 83.8878 5.676 84.4998 5.676C85.0838 5.676 85.5898 5.804 86.0178 6.06C86.4458 6.312 86.7778 6.682 87.0138 7.17C87.2498 7.654 87.3678 8.24 87.3678 8.928C87.3678 9.556 87.2558 10.11 87.0318 10.59C86.8118 11.07 86.4878 11.446 86.0598 11.718C85.6358 11.986 85.1138 12.12 84.4938 12.12ZM84.4998 11.13C84.8518 11.13 85.1458 11.038 85.3818 10.854C85.6218 10.666 85.8018 10.404 85.9218 10.068C86.0418 9.728 86.1018 9.336 86.1018 8.892C86.1018 8.48 86.0478 8.106 85.9398 7.77C85.8358 7.43 85.6658 7.16 85.4298 6.96C85.1938 6.76 84.8838 6.66 84.4998 6.66C84.1398 6.66 83.8398 6.752 83.5998 6.936C83.3598 7.116 83.1778 7.374 83.0538 7.71C82.9338 8.042 82.8738 8.436 82.8738 8.892C82.8738 9.296 82.9278 9.668 83.0358 10.008C83.1438 10.348 83.3178 10.62 83.5578 10.824C83.7978 11.028 84.1118 11.13 84.4998 11.13ZM90.746 12.12C90.314 12.12 89.908 12.052 89.528 11.916C89.152 11.78 88.836 11.566 88.58 11.274C88.328 10.982 88.17 10.608 88.106 10.152H89.252C89.304 10.388 89.402 10.584 89.546 10.74C89.694 10.892 89.87 11.006 90.074 11.082C90.282 11.154 90.504 11.19 90.74 11.19C91.132 11.19 91.448 11.12 91.688 10.98C91.932 10.836 92.054 10.616 92.054 10.32C92.054 10.108 91.988 9.938 91.856 9.81C91.728 9.682 91.524 9.588 91.244 9.528L90.008 9.234C89.496 9.114 89.086 8.924 88.778 8.664C88.47 8.4 88.314 8.032 88.31 7.56C88.31 7.196 88.4 6.872 88.58 6.588C88.764 6.304 89.036 6.082 89.396 5.922C89.756 5.758 90.204 5.676 90.74 5.676C91.44 5.676 92.002 5.832 92.426 6.144C92.85 6.456 93.07 6.908 93.086 7.5H91.976C91.936 7.216 91.806 6.994 91.586 6.834C91.37 6.67 91.084 6.588 90.728 6.588C90.36 6.588 90.058 6.662 89.822 6.81C89.586 6.954 89.468 7.176 89.468 7.476C89.468 7.68 89.554 7.842 89.726 7.962C89.898 8.078 90.156 8.174 90.5 8.25L91.676 8.544C91.98 8.624 92.23 8.73 92.426 8.862C92.622 8.99 92.776 9.132 92.888 9.288C93 9.444 93.078 9.606 93.122 9.774C93.17 9.942 93.194 10.1 93.194 10.248C93.194 10.64 93.094 10.976 92.894 11.256C92.698 11.532 92.416 11.746 92.048 11.898C91.684 12.046 91.25 12.12 90.746 12.12ZM97.616 6.72H96.224L96.23 10.422C96.23 10.626 96.25 10.776 96.29 10.872C96.334 10.964 96.406 11.024 96.506 11.052C96.61 11.076 96.75 11.088 96.926 11.088H97.652V11.922C97.572 11.954 97.452 11.982 97.292 12.006C97.136 12.03 96.934 12.042 96.686 12.042C96.226 12.042 95.868 11.98 95.612 11.856C95.36 11.732 95.184 11.554 95.084 11.322C94.988 11.086 94.94 10.802 94.94 10.47V6.72H93.932V5.796H94.976L95.294 3.972H96.224V5.79H97.616V6.72Z" fill="#23272E"/>
<defs>
<linearGradient id="paint0_linear_6719_1079" x1="182" y1="18" x2="182" y2="102" gradientUnits="userSpaceOnUse">
<stop stop-color="#0F60FF" stop-opacity="0.16"/>
<stop offset="0.0001" stop-color="#0F60FF" stop-opacity="0.08"/>
<stop offset="1" stop-color="#0F60FF" stop-opacity="0"/>
</linearGradient>
<linearGradient id="paint1_linear_6719_1079" x1="182" y1="48" x2="182" y2="132" gradientUnits="userSpaceOnUse">
<stop stop-color="#0FB7FF" stop-opacity="0.08"/>
<stop offset="1" stop-color="#0FB7FF" stop-opacity="0"/>
</linearGradient>
</defs>
</svg>
