<svg width="404" height="35" viewBox="0 0 404 35" fill="none" xmlns="http://www.w3.org/2000/svg">
<rect width="8" height="35" fill="#0F60FF"/>
<rect x="9" y="18" width="8" height="17" fill="#0F60FF"/>
<rect x="18" y="13" width="8" height="22" fill="#0F60FF"/>
<rect x="27" y="26" width="8" height="9" fill="#0F60FF"/>
<rect x="36" y="7" width="8" height="28" fill="#0F60FF"/>
<rect x="45" y="13" width="8" height="22" fill="#0F60FF"/>
<rect x="54" y="18" width="8" height="17" fill="#0F60FF"/>
<rect x="63" y="4" width="8" height="31" fill="#0F60FF"/>
<rect x="72" y="29" width="8" height="6" fill="#0F60FF"/>
<rect x="81" y="21" width="8" height="14" fill="#0F60FF"/>
<rect x="90" y="13" width="8" height="22" fill="#0F60FF"/>
<rect x="99" y="26" width="8" height="9" fill="#0F60FF"/>
<rect x="108" y="7" width="8" height="28" fill="#0F60FF"/>
<rect x="117" y="31" width="8" height="4" fill="#0F60FF"/>
<rect x="126" y="16" width="8" height="19" fill="#0F60FF"/>
<rect x="135" y="10" width="8" height="25" fill="#0F60FF"/>
<rect x="144" y="21" width="8" height="14" fill="#0F60FF"/>
<rect x="153" y="7" width="8" height="28" fill="#0F60FF"/>
<rect x="162" y="13" width="8" height="22" fill="#0F60FF"/>
<rect x="171" y="29" width="8" height="6" fill="#0F60FF"/>
<rect x="180" y="13" width="8" height="22" fill="#0F60FF"/>
<rect x="189" y="24" width="8" height="11" fill="#0F60FF"/>
<rect x="198" y="7" width="8" height="28" fill="#0F60FF"/>
<rect x="207" width="8" height="35" fill="#0F60FF"/>
<rect x="216" y="21" width="8" height="14" fill="#0F60FF"/>
<rect x="225" y="13" width="8" height="22" fill="#0F60FF"/>
<rect x="234" y="29" width="8" height="6" fill="#0F60FF"/>
<rect x="243" y="10" width="8" height="25" fill="#0F60FF"/>
<rect x="252" width="8" height="35" fill="#0F60FF"/>
<rect x="261" y="24" width="8" height="11" fill="#0F60FF"/>
<rect x="270" y="13" width="8" height="22" fill="#0F60FF"/>
<rect x="279" y="21" width="8" height="14" fill="#0F60FF"/>
<rect x="288" y="29" width="8" height="6" fill="#0F60FF"/>
<rect x="297" y="21" width="8" height="14" fill="#0F60FF"/>
<rect x="306" width="8" height="35" fill="#0F60FF"/>
<rect x="315" y="27" width="8" height="8" fill="#0F60FF"/>
<rect x="324" y="16" width="8" height="19" fill="#0F60FF"/>
<rect x="333" y="24" width="8" height="11" fill="#0F60FF"/>
<rect x="342" y="21" width="8" height="14" fill="#0F60FF"/>
<rect x="351" width="8" height="35" fill="#0F60FF"/>
<rect x="360" y="18" width="8" height="17" fill="#0F60FF"/>
<rect x="369" y="31" width="8" height="4" fill="#0F60FF"/>
<rect x="378" y="27" width="8" height="8" fill="#0F60FF"/>
<rect x="387" y="13" width="8" height="22" fill="#0F60FF"/>
<rect x="396" y="18" width="8" height="17" fill="#0F60FF"/>
</svg>
