<svg width="22" height="22" viewBox="0 0 22 22" fill="none" xmlns="http://www.w3.org/2000/svg">
<path fill-rule="evenodd" clip-rule="evenodd" d="M9.46458 3.95725C9.85508 2.34758 12.1449 2.34758 12.5354 3.95725C12.6543 4.44772 13.0002 4.85194 13.4664 5.0451C13.9327 5.23826 14.4631 5.19713 14.894 4.93442C16.3084 4.07275 17.9282 5.69158 17.0665 7.10692C16.8042 7.53762 16.7631 8.06766 16.9561 8.5336C17.149 8.99954 17.5527 9.34542 18.0428 9.46458C19.6524 9.85508 19.6524 12.1449 18.0428 12.5354C17.5523 12.6543 17.1481 13.0002 16.9549 13.4664C16.7617 13.9327 16.8029 14.4631 17.0656 14.894C17.9272 16.3084 16.3084 17.9282 14.8931 17.0665C14.4624 16.8042 13.9323 16.7631 13.4664 16.9561C13.0005 17.149 12.6546 17.5527 12.5354 18.0428C12.1449 19.6524 9.85508 19.6524 9.46458 18.0428C9.34574 17.5523 8.9998 17.1481 8.53357 16.9549C8.06734 16.7617 7.53689 16.8029 7.106 17.0656C5.69158 17.9272 4.07183 16.3084 4.9335 14.8931C5.19584 14.4624 5.23687 13.9323 5.04393 13.4664C4.851 13.0005 4.44727 12.6546 3.95725 12.5354C2.34758 12.1449 2.34758 9.85508 3.95725 9.46458C4.44772 9.34574 4.85194 8.9998 5.0451 8.53357C5.23826 8.06734 5.19713 7.53689 4.93442 7.106C4.07275 5.69158 5.69158 4.07183 7.10692 4.9335C8.02358 5.49083 9.21158 4.99767 9.46458 3.95725Z" stroke="#23272E" stroke-width="1.75" stroke-linecap="round" stroke-linejoin="round"/>
<path fill-rule="evenodd" clip-rule="evenodd" d="M9.46458 3.95725C9.85508 2.34758 12.1449 2.34758 12.5354 3.95725C12.6543 4.44772 13.0002 4.85194 13.4664 5.0451C13.9327 5.23826 14.4631 5.19713 14.894 4.93442C16.3084 4.07275 17.9282 5.69158 17.0665 7.10692C16.8042 7.53762 16.7631 8.06766 16.9561 8.5336C17.149 8.99954 17.5527 9.34542 18.0428 9.46458C19.6524 9.85508 19.6524 12.1449 18.0428 12.5354C17.5523 12.6543 17.1481 13.0002 16.9549 13.4664C16.7617 13.9327 16.8029 14.4631 17.0656 14.894C17.9272 16.3084 16.3084 17.9282 14.8931 17.0665C14.4624 16.8042 13.9323 16.7631 13.4664 16.9561C13.0005 17.149 12.6546 17.5527 12.5354 18.0428C12.1449 19.6524 9.85508 19.6524 9.46458 18.0428C9.34574 17.5523 8.9998 17.1481 8.53357 16.9549C8.06734 16.7617 7.53689 16.8029 7.106 17.0656C5.69158 17.9272 4.07183 16.3084 4.9335 14.8931C5.19584 14.4624 5.23687 13.9323 5.04393 13.4664C4.851 13.0005 4.44727 12.6546 3.95725 12.5354C2.34758 12.1449 2.34758 9.85508 3.95725 9.46458C4.44772 9.34574 4.85194 8.9998 5.0451 8.53357C5.23826 8.06734 5.19713 7.53689 4.93442 7.106C4.07275 5.69158 5.69158 4.07183 7.10692 4.9335C8.02358 5.49083 9.21158 4.99767 9.46458 3.95725Z" stroke="#23272E" stroke-width="1.75" stroke-linecap="round" stroke-linejoin="round"/>
<circle cx="11" cy="11" r="2.75" stroke="#23272E" stroke-width="1.75" stroke-linecap="round" stroke-linejoin="round"/>
<circle cx="11" cy="11" r="2.75" stroke="#23272E" stroke-width="1.75" stroke-linecap="round" stroke-linejoin="round"/>
</svg>
