<svg width="80" height="80" fill="none" xmlns="http://www.w3.org/2000/svg"><path opacity=".3" d="M80 40c0 22.091-17.909 40-40 40S0 62.091 0 40 17.909 0 40 0s40 17.909 40 40zm-69.093 0c0 16.068 13.026 29.093 29.093 29.093 16.068 0 29.093-13.026 29.093-29.093S56.067 10.907 40 10.907 10.907 23.933 10.907 40z" fill="#2F2E30"/><circle cx="40" cy="40" r="29" fill="#000"/><path d="M30.4 53V36.75a9.828 9.828 0 0 1 2.812-6.894A9.525 9.525 0 0 1 40 27a9.525 9.525 0 0 1 6.788 2.856A9.828 9.828 0 0 1 49.6 36.75V53M24 42.543c0-3.336 3.2-4.168 6.4-4.168V53a6.35 6.35 0 0 1-4.525-1.904A6.552 6.552 0 0 1 24 46.5v-3.957zm32 0c0-3.336-3.2-4.168-6.4-4.168V53a6.35 6.35 0 0 0 4.526-1.904A6.552 6.552 0 0 0 56 46.5v-3.957z" stroke="#FAFAFA" stroke-width="2" stroke-linecap="round" stroke-linejoin="round"/></svg>