<svg width="56" height="56" fill="none" xmlns="http://www.w3.org/2000/svg"><g clip-path="url(#a)" stroke="#000" stroke-width="2" stroke-linecap="round" stroke-linejoin="round"><path d="M16.333 30.333H14A4.667 4.667 0 0 0 9.333 35v7A4.667 4.667 0 0 0 14 46.667h2.333A4.667 4.667 0 0 0 21 42v-7a4.667 4.667 0 0 0-4.667-4.667ZM42 30.333h-2.333A4.667 4.667 0 0 0 35 35v7a4.667 4.667 0 0 0 4.667 4.667H42A4.667 4.667 0 0 0 46.667 42v-7A4.667 4.667 0 0 0 42 30.333Z"/><path d="M9.333 35v-7a18.666 18.666 0 1 1 37.334 0v7"/></g><defs><clipPath id="a"><path fill="#fff" d="M0 0h56v56H0z"/></clipPath></defs></svg>