<svg width="80.005" height="80" fill="none" xmlns="http://www.w3.org/2000/svg"><defs><clipPath id="a"><path transform="translate(20 20)" fill="#fff" fill-opacity="0" d="M0 0h40v40H0z"/></clipPath></defs><path fill="none" d="M0 0h80v80H0z"/><path d="M77.96 27.42A39.888 39.888 0 0 0 61 5.95C53.27 1.19 43.88-1 34.2.43c-8.99 1.31-17.58 5.66-24.08 12.98C4.08 20.19.3 29.05.02 38.83c-.27 9.08 2.53 18.3 8.6 25.96 5.63 7.13 13.7 12.4 23.28 14.37 8.9 1.84 18.46.69 27.07-3.96 8-4.31 14.58-11.34 18.19-20.44a39.79 39.79 0 0 0 .8-27.34Zm-42.18-16.2c6.54-.97 13.44.28 19.49 4.02 5.62 3.47 10.11 8.85 12.34 15.61a28.91 28.91 0 0 1-.59 19.89A28.89 28.89 0 0 1 53.79 65.6a28.874 28.874 0 0 1-19.68 2.88 28.875 28.875 0 0 1-16.93-10.45 28.95 28.95 0 0 1-6.26-18.89c.19-6.6 2.61-13.17 7.35-18.48 4.39-4.94 10.47-8.42 17.51-9.44Z" fill="#FFF" fill-rule="evenodd" opacity=".3"/><circle cx="40" cy="40" r="29" fill="#FFF"/><g clip-path="url(#a)" stroke="#000" stroke-linejoin="round"><path d="M40 57.27c-9.54 0-17.28-7.74-17.28-17.27 0-9.54 7.74-17.28 17.28-17.28 9.54 0 17.27 7.74 17.27 17.28 0 9.53-7.73 17.27-17.27 17.27Z" stroke-width="2"/><path d="M45.09 34.54c-.33-.57-.81-1.04-1.39-1.36-.57-.32-1.23-.48-1.89-.46h-3.63c-.97 0-1.89.39-2.57 1.07-.69.68-1.07 1.61-1.07 2.57 0 .96.38 1.89 1.07 2.57.68.68 1.6 1.07 2.57 1.07h3.63c.97 0 1.89.38 2.57 1.06.69.68 1.07 1.61 1.07 2.57 0 .96-.38 1.89-1.07 2.57-.68.68-1.6 1.07-2.57 1.07h-3.63a3.676 3.676 0 0 1-3.28-1.82" stroke-width="2.75" stroke-linecap="round"/><path d="M40 28.18" stroke-width="2.75"/></g></svg>