<svg width="80.004883" height="80.000000" viewBox="0 0 80.0049 80" fill="none" xmlns="http://www.w3.org/2000/svg" xmlns:xlink="http://www.w3.org/1999/xlink">
	<desc>
			Created with Pixso.
	</desc>
	<defs>
		<clipPath id="clip95_1646">
			<rect id="Icon-Sale" width="40.000000" height="40.000000" transform="translate(20.000000 20.000000)" fill="white" fill-opacity="0"/>
		</clipPath>
	</defs>
	<rect id="Services" width="80.000000" height="80.000000" fill="#FFFFFF" fill-opacity="0"/>
	<g opacity="0.300000">
		<path id="Ellipse 6" d="M77.96 27.42C75.11 18.8 69.32 11.09 61 5.95C53.27 1.19 43.88 -1 34.2 0.43C25.21 1.74 16.62 6.09 10.12 13.41C4.08 20.19 0.3 29.05 0.02 38.83C-0.25 47.91 2.55 57.13 8.62 64.79C14.25 71.92 22.32 77.19 31.9 79.16C40.8 81 50.36 79.85 58.97 75.2C66.97 70.89 73.55 63.86 77.16 54.76C80.52 46.33 81.04 36.7 77.96 27.42ZM35.78 11.22C42.32 10.25 49.22 11.5 55.27 15.24C60.89 18.71 65.38 24.09 67.61 30.85C69.69 37.12 69.66 44.13 67.02 50.74C64.59 56.88 60.06 62.23 53.79 65.6C47.98 68.74 41.08 69.93 34.11 68.48C27.64 67.15 21.58 63.62 17.18 58.03C13.08 52.85 10.71 46.26 10.92 39.14C11.11 32.54 13.53 25.97 18.27 20.66C22.66 15.72 28.74 12.24 35.78 11.22Z" fill="#FFFFFF" fill-opacity="1.000000" fill-rule="evenodd"/>
	</g>
	<circle id="Ellipse 5" cx="40.000000" cy="40.000000" r="29.000000" fill="#FFFFFF" fill-opacity="1.000000"/>
	<g clip-path="url(#clip95_1646)">
		<path id="Vector" d="M40 57.27C30.46 57.27 22.72 49.53 22.72 40C22.72 30.46 30.46 22.72 40 22.72C49.54 22.72 57.27 30.46 57.27 40C57.27 49.53 49.54 57.27 40 57.27Z" stroke="#000000" stroke-opacity="1.000000" stroke-width="2.000000" stroke-linejoin="round"/>
		<path id="Vector" d="M45.09 34.54C44.76 33.97 44.28 33.5 43.7 33.18C43.13 32.86 42.47 32.7 41.81 32.72L38.18 32.72C37.21 32.72 36.29 33.11 35.61 33.79C34.92 34.47 34.54 35.4 34.54 36.36C34.54 37.32 34.92 38.25 35.61 38.93C36.29 39.61 37.21 40 38.18 40L41.81 40C42.78 40 43.7 40.38 44.38 41.06C45.07 41.74 45.45 42.67 45.45 43.63C45.45 44.59 45.07 45.52 44.38 46.2C43.7 46.88 42.78 47.27 41.81 47.27L38.18 47.27C37.52 47.29 36.87 47.13 36.29 46.81C35.71 46.49 35.23 46.02 34.9 45.45" stroke="#000000" stroke-opacity="1.000000" stroke-width="2.750000" stroke-linejoin="round" stroke-linecap="round"/>
		<path id="Vector" d="M40 28.18L40 28.18M40 28.18L40 28.18" stroke="#000000" stroke-opacity="1.000000" stroke-width="2.750000" stroke-linejoin="round"/>
	</g>
</svg>
