<svg width="80.004883" height="80.000000" viewBox="0 0 80.0049 80" fill="none" xmlns="http://www.w3.org/2000/svg" xmlns:xlink="http://www.w3.org/1999/xlink">
	<desc>
			Created with Pixso.
	</desc>
	<defs>
		<clipPath id="clip95_1712">
			<rect id="Icon-Shopping bag" width="40.000000" height="40.000000" transform="translate(20.000000 20.000000)" fill="white" fill-opacity="0"/>
		</clipPath>
	</defs>
	<rect id="Services" width="80.000000" height="80.000000" fill="#FFFFFF" fill-opacity="0"/>
	<g opacity="0.300000">
		<path id="Ellipse 6" d="M77.96 27.42C75.11 18.8 69.32 11.09 61 5.95C53.27 1.19 43.88 -1 34.2 0.43C25.21 1.74 16.62 6.09 10.12 13.41C4.08 20.19 0.3 29.05 0.02 38.83C-0.25 47.91 2.55 57.13 8.62 64.79C14.25 71.92 22.32 77.19 31.9 79.16C40.8 81 50.36 79.85 58.97 75.2C66.97 70.89 73.55 63.86 77.16 54.76C80.52 46.33 81.04 36.7 77.96 27.42ZM35.78 11.22C42.32 10.25 49.22 11.5 55.27 15.24C60.89 18.71 65.38 24.09 67.61 30.85C69.69 37.12 69.66 44.13 67.02 50.74C64.59 56.88 60.06 62.23 53.79 65.6C47.98 68.74 41.08 69.93 34.11 68.48C27.64 67.15 21.58 63.62 17.18 58.03C13.08 52.85 10.71 46.26 10.92 39.14C11.11 32.54 13.53 25.97 18.27 20.66C22.66 15.72 28.74 12.24 35.78 11.22Z" fill="#2F2E30" fill-opacity="1.000000" fill-rule="evenodd"/>
	</g>
	<circle id="Ellipse 5" cx="40.000000" cy="40.000000" r="29.000000" fill="#000000" fill-opacity="1.000000"/>
	<g clip-path="url(#clip95_1712)">
		<path id="Vector" d="M31.66 31.66L31.66 28.33C31.66 27.36 31.94 26.42 32.47 25.61C32.99 24.8 33.74 24.16 34.62 23.76C35.5 23.37 36.48 23.24 37.43 23.39C38.39 23.54 39.28 23.96 40 24.6C40.71 23.96 41.61 23.54 42.56 23.39C43.51 23.24 44.49 23.37 45.37 23.76C46.25 24.16 47 24.8 47.52 25.61C48.05 26.42 48.33 27.36 48.33 28.33L48.33 31.66L50.83 31.66C51.49 31.66 52.13 31.93 52.6 32.39C53.07 32.86 53.33 33.5 53.33 34.16L53.33 50.84C53.33 52.38 52.71 53.86 51.62 54.96C50.53 56.05 49.05 56.66 47.5 56.66L33.33 56.66C31.56 56.66 29.87 55.96 28.61 54.71C27.36 53.46 26.66 51.76 26.66 50L26.66 34.16C26.66 33.5 26.93 32.86 27.39 32.39C27.86 31.93 28.5 31.66 29.16 31.66L31.66 31.66ZM42.72 54.16C42.04 53.19 41.68 52.03 41.68 50.84L41.68 34.16L29.16 34.16L29.16 50C29.16 50.54 29.27 51.08 29.48 51.59C29.69 52.1 30 52.55 30.38 52.94C30.77 53.33 31.23 53.64 31.73 53.84C32.24 54.05 32.78 54.16 33.33 54.16L42.72 54.16ZM39.16 31.66L39.16 28.33C39.16 27.67 38.9 27.03 38.43 26.56C37.96 26.09 37.33 25.83 36.66 25.83C36 25.83 35.36 26.09 34.89 26.56C34.43 27.03 34.16 27.67 34.16 28.33L34.16 31.66L39.16 31.66ZM41.66 31.66L45.83 31.66L45.83 28.33C45.83 27.81 45.67 27.31 45.37 26.89C45.08 26.47 44.66 26.15 44.18 25.98C43.69 25.8 43.16 25.78 42.67 25.92C42.17 26.05 41.73 26.34 41.4 26.74C41.57 27.24 41.66 27.77 41.66 28.33L41.66 31.66ZM44.18 50.84C44.18 51.72 44.53 52.56 45.15 53.19C45.78 53.81 46.62 54.16 47.5 54.16C48.39 54.16 49.23 53.81 49.85 53.19C50.48 52.56 50.83 51.72 50.83 50.84L50.83 34.16L44.18 34.16L44.18 50.84Z" fill="#FFFFFF" fill-opacity="1.000000" fill-rule="nonzero"/>
	</g>
</svg>
