<svg width="80.005" height="80" fill="none" xmlns="http://www.w3.org/2000/svg"><defs><clipPath id="a"><path transform="translate(20 20)" fill="#fff" fill-opacity="0" d="M0 0h40v40H0z"/></clipPath></defs><path fill="none" d="M0 0h80v80H0z"/><path d="M77.96 27.42A39.888 39.888 0 0 0 61 5.95C53.27 1.19 43.88-1 34.2.43c-8.99 1.31-17.58 5.66-24.08 12.98C4.08 20.19.3 29.05.02 38.83c-.27 9.08 2.53 18.3 8.6 25.96 5.63 7.13 13.7 12.4 23.28 14.37 8.9 1.84 18.46.69 27.07-3.96 8-4.31 14.58-11.34 18.19-20.44a39.79 39.79 0 0 0 .8-27.34Zm-42.18-16.2c6.54-.97 13.44.28 19.49 4.02 5.62 3.47 10.11 8.85 12.34 15.61a28.91 28.91 0 0 1-.59 19.89A28.89 28.89 0 0 1 53.79 65.6a28.874 28.874 0 0 1-19.68 2.88 28.875 28.875 0 0 1-16.93-10.45 28.95 28.95 0 0 1-6.26-18.89c.19-6.6 2.61-13.17 7.35-18.48 4.39-4.94 10.47-8.42 17.51-9.44Z" fill="#2F2E30" fill-rule="evenodd" opacity=".3"/><circle cx="40" cy="40" r="29" fill="#000"/><g clip-path="url(#a)"><path d="M31.66 31.66v-3.33c0-.97.28-1.91.81-2.72.52-.81 1.27-1.45 2.15-1.85a5.032 5.032 0 0 1 5.38.84 5.02 5.02 0 0 1 5.37-.84c.88.4 1.63 1.04 2.15 1.85.53.81.81 1.75.81 2.72v3.33h2.5c.66 0 1.3.27 1.77.73.47.47.73 1.11.73 1.77v16.68c0 1.54-.62 3.02-1.71 4.12a5.819 5.819 0 0 1-4.12 1.7H33.33c-1.77 0-3.46-.7-4.72-1.95A6.67 6.67 0 0 1 26.66 50V34.16c0-.66.27-1.3.73-1.77.47-.46 1.11-.73 1.77-.73h2.5Zm11.06 22.5a5.78 5.78 0 0 1-1.04-3.32V34.16H29.16V50a4.18 4.18 0 0 0 1.22 2.94c.39.39.85.7 1.35.9.51.21 1.05.32 1.6.32h9.39Zm-3.56-22.5v-3.33c0-.66-.26-1.3-.73-1.77s-1.1-.73-1.77-.73c-.66 0-1.3.26-1.77.73-.46.47-.73 1.11-.73 1.77v3.33h5Zm2.5 0h4.17v-3.33c0-.52-.16-1.02-.46-1.44-.29-.42-.71-.74-1.19-.91a2.44 2.44 0 0 0-1.51-.06c-.5.13-.94.42-1.27.82.17.5.26 1.03.26 1.59v3.33Zm2.52 19.18c0 .88.35 1.72.97 2.35.63.62 1.47.97 2.35.97.89 0 1.73-.35 2.35-.97.63-.63.98-1.47.98-2.35V34.16h-6.65v16.68Z" fill="#FFF"/></g></svg>