<svg width="24" height="24" fill="none" xmlns="http://www.w3.org/2000/svg"><g clip-path="url(#a)"><path d="M23.766 12.276c0-.815-.066-1.635-.207-2.438H12.24v4.621h6.482a5.554 5.554 0 0 1-2.399 3.647v2.998h3.867c2.27-2.09 3.576-5.177 3.576-8.828Z" fill="#4285F4"/><path d="M12.24 24c3.236 0 5.966-1.062 7.954-2.896l-3.867-2.998c-1.075.731-2.464 1.146-4.083 1.146-3.13 0-5.785-2.112-6.737-4.952h-3.99v3.091a12.002 12.002 0 0 0 10.723 6.61Z" fill="#34A853"/><path d="M5.503 14.3a7.188 7.188 0 0 1 0-4.594V6.615H1.516a12.01 12.01 0 0 0 0 10.776l3.987-3.09Z" fill="#FBBC04"/><path d="M12.24 4.75a6.52 6.52 0 0 1 4.603 1.799l3.426-3.426A11.533 11.533 0 0 0 12.24 0 11.998 11.998 0 0 0 1.516 6.615l3.987 3.09C6.45 6.863 9.109 4.75 12.24 4.75Z" fill="#EA4335"/></g><defs><clipPath id="a"><path fill="#fff" d="M0 0h24v24H0z"/></clipPath></defs></svg>