<svg width="24.000000" height="24.000000" viewBox="0 0 24 24" fill="none" xmlns="http://www.w3.org/2000/svg" xmlns:xlink="http://www.w3.org/1999/xlink">
	<desc>
			Created with Pixso.
	</desc>
	<defs>
		<clipPath id="clip246_4776">
			<rect id="Icon-Linkedin" width="24.000000" height="24.000000" fill="white" fill-opacity="0"/>
		</clipPath>
	</defs>
	<g clip-path="url(#clip246_4776)">
		<path id="Vector" d="M11.5 9.05C12.41 8.11 13.61 7.5 15 7.5C16.45 7.5 17.85 8.07 18.88 9.11C19.92 10.14 20.5 11.54 20.5 13L20.5 20.5L18.5 20.5L18.5 13C18.5 12.07 18.13 11.18 17.47 10.52C16.81 9.86 15.92 9.5 15 9.5C14.07 9.5 13.18 9.86 12.52 10.52C11.86 11.18 11.5 12.07 11.5 13L11.5 20.5L9.5 20.5L9.5 8L11.5 8L11.5 9.05ZM4.5 6C4.1 6 3.72 5.84 3.43 5.56C3.15 5.27 3 4.89 3 4.5C3 4.1 3.15 3.72 3.43 3.43C3.72 3.15 4.1 3 4.5 3C4.89 3 5.27 3.15 5.56 3.43C5.84 3.72 6 4.1 6 4.5C6 4.89 5.84 5.27 5.56 5.56C5.27 5.84 4.89 6 4.5 6ZM3.5 8L5.5 8L5.5 20.5L3.5 20.5L3.5 8Z" fill="#000000" fill-opacity="1.000000" fill-rule="nonzero"/>
	</g>
</svg>
