<svg width="24.000000" height="24.000000" viewBox="0 0 24 24" fill="none" xmlns="http://www.w3.org/2000/svg" xmlns:xlink="http://www.w3.org/1999/xlink">
	<desc>
			Created with Pixso.
	</desc>
	<defs>
		<clipPath id="clip246_4775">
			<rect id="icon-instagram" width="24.000000" height="24.000000" fill="white" fill-opacity="0"/>
		</clipPath>
	</defs>
	<g clip-path="url(#clip246_4775)">
		<path id="Vector" d="M7 3C5.93 3 4.92 3.42 4.17 4.17C3.42 4.92 3 5.93 3 7L3 17C3 18.06 3.42 19.07 4.17 19.82C4.92 20.57 5.93 21 7 21L17 21C18.06 21 19.07 20.57 19.82 19.82C20.57 19.07 21 18.06 21 17L21 7C21 5.93 20.57 4.92 19.82 4.17C19.07 3.42 18.06 3 17 3L7 3Z" stroke="#000000" stroke-opacity="1.000000" stroke-width="1.500000" stroke-linejoin="round"/>
		<path id="Vector" d="M14.82 14.82C15.57 14.07 16 13.06 16 12C16 10.93 15.57 9.92 14.82 9.17C14.07 8.42 13.06 8 12 8C10.93 8 9.92 8.42 9.17 9.17C8.42 9.92 8 10.93 8 12C8 13.06 8.42 14.07 9.17 14.82C9.92 15.57 10.93 16 12 16C13.06 16 14.07 15.57 14.82 14.82Z" stroke="#000000" stroke-opacity="1.000000" stroke-width="1.500000" stroke-linejoin="round"/>
		<path id="Vector" d="M17.5 7.5C17.76 7.5 18.01 7.39 18.2 7.2C18.39 7.01 18.5 6.76 18.5 6.5C18.5 6.23 18.39 5.98 18.2 5.79C18.01 5.6 17.76 5.5 17.5 5.5C17.23 5.5 16.98 5.6 16.79 5.79C16.6 5.98 16.5 6.23 16.5 6.5C16.5 6.76 16.6 7.01 16.79 7.2C16.98 7.39 17.23 7.5 17.5 7.5Z" fill="#000000" fill-opacity="1.000000" fill-rule="nonzero"/>
	</g>
</svg>
