<svg width="40" height="40" fill="none" xmlns="http://www.w3.org/2000/svg"><defs><clipPath id="a"><path fill="#fff" fill-opacity="0" d="M0 0h40v40H0z"/></clipPath></defs><path fill="none" d="M0 0h40v40H0z"/><g clip-path="url(#a)" stroke="#000" stroke-width="2" stroke-linejoin="round"><path d="M11.66 31.66c-1.84 0-3.33-1.49-3.33-3.33S9.82 25 11.66 25 15 26.49 15 28.33s-1.5 3.33-3.34 3.33ZM28.33 31.66c-1.84 0-3.33-1.49-3.33-3.33S26.49 25 28.33 25s3.33 1.49 3.33 3.33-1.49 3.33-3.33 3.33Z"/><path d="M8.33 28.33H7a2 2 0 0 1-2-2v-4.67M3.33 8.33h16.33c1.11 0 2 .89 2 2v18m-6.66 0h10m6.66 0H33c1.1 0 2-.9 2-2v-8l-4.42-7.36a1.98 1.98 0 0 0-1.72-.97h-7.2M35 18.33H21.66"/><path d="M8 28H6.66c-1.1 0-2-.9-2-2v-4.67M3 8h16.33a2 2 0 0 1 2 2v18M15 28h9.66M32 28h.66a2 2 0 0 0 2-2v-8l-4.41-7.37c-.37-.6-1.02-.97-1.72-.97h-7.2M34.66 18H21.33"/><path d="M5 11.81h6.66M1.81 15.45h6.67M5 19.09h6.66" stroke-linecap="round"/></g></svg>