<svg width="40" height="40" fill="none" xmlns="http://www.w3.org/2000/svg"><defs><clipPath id="a"><path fill="#fff" fill-opacity="0" d="M0 0h40v40H0z"/></clipPath></defs><g clip-path="url(#a)" stroke="#000" stroke-width="2" stroke-linejoin="round"><path d="M33.33 18.33a13.58 13.58 0 0 0-3.87-7.74 13.55 13.55 0 0 0-7.78-3.79c-2.93-.38-5.91.22-8.48 1.7A13.429 13.429 0 0 0 7.5 15m-.84-6.67V15h6.67M6.66 21.66a13.58 13.58 0 0 0 3.87 7.74 13.55 13.55 0 0 0 7.78 3.79A13.516 13.516 0 0 0 32.5 25m.83 6.66V25h-6.67"/></g></svg>