<svg width="24" height="24" fill="none" xmlns="http://www.w3.org/2000/svg"><defs><clipPath id="a"><path fill="#fff" fill-opacity="0" d="M0 0h24v24H0z"/></clipPath></defs><g clip-path="url(#a)"><path d="M7 3c-1.07 0-2.08.42-2.83 1.17S3 5.93 3 7v10c0 1.06.42 2.07 1.17 2.82S5.93 21 7 21h10c1.06 0 2.07-.43 2.82-1.18A3.99 3.99 0 0 0 21 17V7c0-1.07-.43-2.08-1.18-2.83A3.98 3.98 0 0 0 17 3H7Z" stroke="#000" stroke-width="1.5" stroke-linejoin="round"/><path d="M14.82 14.82A3.99 3.99 0 0 0 16 12c0-1.07-.43-2.08-1.18-2.83A3.98 3.98 0 0 0 12 8c-1.07 0-2.08.42-2.83 1.17S8 10.93 8 12c0 1.06.42 2.07 1.17 2.82S10.93 16 12 16c1.06 0 2.07-.43 2.82-1.18Z" stroke="#000" stroke-width="1.5" stroke-linejoin="round"/><path d="M17.5 7.5c.26 0 .51-.11.7-.3.19-.19.3-.44.3-.7a1 1 0 0 0-.3-.71.984.984 0 0 0-.7-.29.99.99 0 0 0-1 1c0 .26.1.51.29.7a1 1 0 0 0 .71.3Z" fill="#000"/></g></svg>