<svg width="24" height="24" fill="none" xmlns="http://www.w3.org/2000/svg"><defs><clipPath id="a"><path fill="#fff" fill-opacity="0" d="M0 0h24v24H0z"/></clipPath></defs><path fill="none" d="M0 0h24v24H0z"/><g clip-path="url(#a)"><path d="M15.9 6c-.76 0-1.49.29-2.03.83-.54.53-.86 1.25-.87 2.01l-.03 1.58c0 .08-.02.17-.06.24-.03.08-.08.15-.15.2-.06.06-.14.1-.22.12-.08.03-.16.03-.25.02l-1.56-.21c-2.05-.28-4.02-1.23-5.91-2.8-.6 3.31.57 5.6 3.38 7.37l1.75 1.1c.08.05.15.12.2.21.05.08.08.18.08.28.01.1-.02.19-.06.28-.04.09-.11.17-.18.22l-1.6 1.17c.95.06 1.85.01 2.6-.13 4.71-.95 7.85-4.5 7.85-10.35 0-.48-1.01-2.14-2.94-2.14ZM11 8.81c.02-.97.32-1.91.87-2.7.54-.79 1.31-1.41 2.21-1.76.89-.36 1.88-.45 2.82-.25.94.19 1.81.67 2.48 1.35.72 0 1.32.18 2.67-.64-.33 1.64-.5 2.35-1.21 3.33 0 7.64-4.7 11.36-9.46 12.31-3.27.65-8.02-.42-9.38-1.84.69-.06 3.51-.36 5.14-1.55-1.38-.91-6.87-4.14-3.26-12.83 1.69 1.98 3.41 3.33 5.15 4.04 1.16.47 1.44.46 1.97.54Z" fill="#000"/><path d="M19.38 5.45A4.855 4.855 0 0 0 16.9 4.1c-.94-.2-1.93-.11-2.82.25-.9.35-1.67.97-2.21 1.76-.51.74-.81 1.6-.86 2.5-.01.06-.01.13-.01.2l-.2-.03c-.42-.05-.77-.1-1.77-.51-1.69-.69-3.36-1.98-5.01-3.87l-.14-.17-.09.21c-3.3 8.19 1.57 11.45 3.17 12.5.01.01.03.02.04.03.05.03.1.06.14.09l-.18.12c-1.48.98-3.77 1.31-4.7 1.4-.11.01-.2.02-.26.03.05.06.12.12.19.18 1.58 1.33 6.06 2.28 9.19 1.66 4.76-.95 9.46-4.67 9.46-12.31.67-.93.86-1.61 1.16-3.07.02-.08.04-.17.05-.26-.08.04-.15.09-.23.13-.99.56-1.56.54-2.11.52-.11-.01-.21-.01-.33-.01Zm2.39-.25q-.57.29-1.05.39-.27.06-.55.07-.16.01-.47 0-.21-.01-.31-.01h-.09l-.06-.06q-.24-.24-.52-.45-.27-.21-.57-.37-.31-.17-.63-.29-.32-.12-.66-.19t-.68-.09q-.35-.02-.69.01-.35.03-.68.11-.33.08-.66.21-.32.13-.61.3-.3.18-.57.39-.27.22-.51.47-.23.25-.43.54-.2.28-.35.59-.15.31-.26.64-.1.33-.16.67-.05.29-.06.6l.36.36-.59-.08-.18-.03q-.42-.05-.7-.12-.44-.12-1.14-.41-2.54-1.04-5.01-3.84-1.08 2.72-1.07 5.02.01 1.75.65 3.23.09.21.2.42.65 1.27 1.78 2.3.41.38.89.73.28.2.72.49.1.06.14.09l.24.16-.23.17q-1.08.79-3 1.23-.66.16-1.37.26-.21.03-.41.05.45.33 1.17.64 1.03.43 2.36.71 1.36.28 2.72.32 1.45.05 2.61-.18 1.67-.33 3.13-1.07l.3-.16q1.29-.7 2.32-1.68.34-.32.66-.67.25-.29.48-.59 1.02-1.33 1.61-3 .8-2.22.8-4.94v-.07l.04-.05q.26-.35.43-.68.16-.32.29-.68.11-.34.23-.82.05-.24.14-.64ZM14.2 6.31q-.25.16-.47.37-.22.22-.39.46-.17.25-.29.53-.12.28-.18.57-.06.29-.07.6l-.03 1.57q0 .05-.01.08-.01.05-.03.09-.01.04-.04.07l-.06.06q-.03.03-.07.05-.03.02-.07.03-.05.01-.09.02-.04 0-.08-.01l-1.56-.21q-2.99-.41-5.81-2.75l-.26-.22-.07.33q-.45 2.52.43 4.39.86 1.81 3.05 3.19l1.74 1.1q.05.03.08.06l.06.08q.02.04.04.09.01.04.01.09 0 .05-.01.1t-.03.09q-.02.05-.05.09-.03.03-.07.06l-2.04 1.49.55.04q1.5.09 2.64-.14 1.82-.36 3.28-1.21.96-.56 1.73-1.3.43-.42.81-.89 1.07-1.36 1.63-3.13.57-1.82.57-4.01 0-.26-.21-.64-.23-.4-.6-.76-.32-.31-.71-.53-.13-.07-.27-.13-.22-.1-.46-.16-.43-.12-.89-.12-.3 0-.6.05-.29.06-.57.18-.29.11-.53.28ZM15.9 6c-.76 0-1.49.29-2.03.83-.54.53-.86 1.25-.87 2.01l-.03 1.58c0 .08-.02.17-.06.24-.03.08-.08.15-.15.2-.06.06-.14.1-.22.12-.08.03-.16.03-.25.02l-1.56-.21C8.74 10.52 6.83 9.62 5 8.14l-.18-.15c-.01.08-.03.15-.04.23-.5 3.19.68 5.41 3.42 7.14l1.75 1.1c.08.05.15.12.2.21.05.08.08.18.08.28.01.1-.02.19-.06.28-.04.09-.11.17-.18.22l-1.34.98-.26.19c.11 0 .22.01.32.01.83.03 1.61-.01 2.28-.14 4.71-.95 7.85-4.5 7.85-10.35 0-.48-1.01-2.14-2.94-2.14Z" fill="#FFF" fill-rule="evenodd"/></g></svg>