<svg width="24" height="24" fill="none" xmlns="http://www.w3.org/2000/svg"><defs><clipPath id="a"><path fill="#fff" fill-opacity="0" d="M0 0h24v24H0z"/></clipPath></defs><g clip-path="url(#a)"><path d="M11.5 9.05c.91-.94 2.11-1.55 3.5-1.55 1.45 0 2.85.57 3.88 1.61A5.47 5.47 0 0 1 20.5 13v7.5h-2V13c0-.93-.37-1.82-1.03-2.48A3.49 3.49 0 0 0 15 9.5c-.93 0-1.82.36-2.48 1.02-.66.66-1.02 1.55-1.02 2.48v7.5h-2V8h2v1.05ZM4.5 6c-.4 0-.78-.16-1.07-.44a1.53 1.53 0 0 1 0-2.13 1.53 1.53 0 0 1 2.13 0c.28.29.44.67.44 1.07 0 .39-.16.77-.44 1.06-.29.28-.67.44-1.06.44Zm-1 2h2v12.5h-2V8Z" fill="#000"/></g></svg>