<svg width="40.000000" height="40.000000" viewBox="0 0 40 40" fill="none" xmlns="http://www.w3.org/2000/svg" xmlns:xlink="http://www.w3.org/1999/xlink">
	<desc>
			Created with Pixso.
	</desc>
	<defs>
		<clipPath id="clip261_4865">
			<rect id="Icon-return" width="40.000000" height="40.000000" fill="white" fill-opacity="0"/>
		</clipPath>
	</defs>
	<g clip-path="url(#clip261_4865)">
		<path id="Vector" d="M33.33 18.33C32.92 15.4 31.56 12.68 29.46 10.59C27.35 8.51 24.62 7.18 21.68 6.8C18.75 6.42 15.77 7.02 13.2 8.5C10.64 9.98 8.63 12.26 7.5 15M6.66 8.33L6.66 15L13.33 15" stroke="#000000" stroke-opacity="1.000000" stroke-width="2.000000" stroke-linejoin="round"/>
		<path id="Vector" d="M6.66 21.66C7.07 24.59 8.43 27.31 10.53 29.4C12.64 31.48 15.37 32.81 18.31 33.19C21.24 33.57 24.22 32.97 26.79 31.49C29.35 30.01 31.36 27.73 32.5 25M33.33 31.66L33.33 25L26.66 25" stroke="#000000" stroke-opacity="1.000000" stroke-width="2.000000" stroke-linejoin="round"/>
	</g>
</svg>
