<svg width="40.000000" height="40.000000" viewBox="0 0 40 40" fill="none" xmlns="http://www.w3.org/2000/svg" xmlns:xlink="http://www.w3.org/1999/xlink">
	<desc>
			Created with Pixso.
	</desc>
	<defs>
		<clipPath id="clip261_4843">
			<rect id="icon-delivery" width="40.000000" height="40.000000" fill="white" fill-opacity="0"/>
		</clipPath>
	</defs>
	<rect id="icon-delivery" width="40.000000" height="40.000000" fill="#FFFFFF" fill-opacity="0"/>
	<g clip-path="url(#clip261_4843)">
		<path id="Vector" d="M11.66 31.66C9.82 31.66 8.33 30.17 8.33 28.33C8.33 26.49 9.82 25 11.66 25C13.5 25 15 26.49 15 28.33C15 30.17 13.5 31.66 11.66 31.66Z" stroke="#000000" stroke-opacity="1.000000" stroke-width="2.000000" stroke-linejoin="round"/>
		<path id="Vector" d="M28.33 31.66C26.49 31.66 25 30.17 25 28.33C25 26.49 26.49 25 28.33 25C30.17 25 31.66 26.49 31.66 28.33C31.66 30.17 30.17 31.66 28.33 31.66Z" stroke="#000000" stroke-opacity="1.000000" stroke-width="2.000000" stroke-linejoin="round"/>
		<path id="Vector" d="M8.33 28.33L7 28.33C5.89 28.33 5 27.43 5 26.33L5 21.66M3.33 8.33L19.66 8.33C20.77 8.33 21.66 9.22 21.66 10.33L21.66 28.33M15 28.33L25 28.33M31.66 28.33L33 28.33C34.1 28.33 35 27.43 35 26.33L35 18.33L30.58 10.97C30.22 10.36 29.57 10 28.86 10L21.66 10M35 18.33L21.66 18.33" stroke="#000000" stroke-opacity="1.000000" stroke-width="2.000000" stroke-linejoin="round"/>
		<path id="Vector" d="M8 28L6.66 28C5.56 28 4.66 27.1 4.66 26L4.66 21.33M3 8L19.33 8C20.43 8 21.33 8.89 21.33 10L21.33 28M15 28L24.66 28M32 28L32.66 28C33.77 28 34.66 27.1 34.66 26L34.66 18L30.25 10.63C29.88 10.03 29.23 9.66 28.53 9.66L21.33 9.66M34.66 18L21.33 18" stroke="#000000" stroke-opacity="1.000000" stroke-width="2.000000" stroke-linejoin="round"/>
		<path id="Vector" d="M5 11.81L11.66 11.81" stroke="#000000" stroke-opacity="1.000000" stroke-width="2.000000" stroke-linejoin="round" stroke-linecap="round"/>
		<path id="Vector" d="M1.81 15.45L8.48 15.45" stroke="#000000" stroke-opacity="1.000000" stroke-width="2.000000" stroke-linejoin="round" stroke-linecap="round"/>
		<path id="Vector" d="M5 19.09L11.66 19.09" stroke="#000000" stroke-opacity="1.000000" stroke-width="2.000000" stroke-linejoin="round" stroke-linecap="round"/>
	</g>
</svg>
