<svg width="24" height="24" fill="none" xmlns="http://www.w3.org/2000/svg"><defs><clipPath id="a"><path transform="matrix(-1 0 0 1 24 0)" fill="#fff" fill-opacity="0" d="M0 0h24v24H0z"/></clipPath></defs><path fill="none" d="M24 0H0v24h24z"/><g clip-path="url(#a)"><path d="M4 12h9.5M6 15l-3-3 3-3m5-2V6c0-.54.21-1.04.58-1.42.38-.37.88-.58 1.42-.58h5c.53 0 1.03.21 1.41.58.37.38.59.88.59 1.42v12c0 .53-.22 1.03-.59 1.41-.38.37-.88.59-1.41.59h-5c-.54 0-1.04-.22-1.42-.59-.37-.38-.58-.88-.58-1.41v-1" stroke="#FAFAFA" stroke-width="1.5" stroke-linejoin="round"/></g></svg>