<svg width="80.004883" height="80.000000" viewBox="0 0 80.0049 80" fill="none" xmlns="http://www.w3.org/2000/svg" xmlns:xlink="http://www.w3.org/1999/xlink">
	<desc>
			Created with Pixso.
	</desc>
	<defs>
		<clipPath id="clip95_1657">
			<rect id="Icon-Moneybag" width="40.000000" height="40.000000" transform="translate(20.000000 20.000000)" fill="white" fill-opacity="0"/>
		</clipPath>
	</defs>
	<rect id="Services" width="80.000000" height="80.000000" fill="#FFFFFF" fill-opacity="0"/>
	<g opacity="0.300000">
		<path id="Ellipse 6" d="M77.96 27.42C75.11 18.8 69.32 11.09 61 5.95C53.27 1.19 43.88 -1 34.2 0.43C25.21 1.74 16.62 6.09 10.12 13.41C4.08 20.19 0.3 29.05 0.02 38.83C-0.25 47.91 2.55 57.13 8.62 64.79C14.25 71.92 22.32 77.19 31.9 79.16C40.8 81 50.36 79.85 58.97 75.2C66.97 70.89 73.55 63.86 77.16 54.76C80.52 46.33 81.04 36.7 77.96 27.42ZM35.78 11.22C42.32 10.25 49.22 11.5 55.27 15.24C60.89 18.71 65.38 24.09 67.61 30.85C69.69 37.12 69.66 44.13 67.02 50.74C64.59 56.88 60.06 62.23 53.79 65.6C47.98 68.74 41.08 69.93 34.11 68.48C27.64 67.15 21.58 63.62 17.18 58.03C13.08 52.85 10.71 46.26 10.92 39.14C11.11 32.54 13.53 25.97 18.27 20.66C22.66 15.72 28.74 12.24 35.78 11.22Z" fill="#2F2E30" fill-opacity="1.000000" fill-rule="evenodd"/>
	</g>
	<circle id="Ellipse 5" cx="40.000000" cy="40.000000" r="29.000000" fill="#000000" fill-opacity="1.000000"/>
	<rect id="Icon-Moneybag" width="40.000000" height="40.000000" transform="translate(20.000000 20.000000)" fill="#FFFFFF" fill-opacity="0"/>
	<g clip-path="url(#clip95_1657)">
		<path id="Vector" d="M44.42 40.61C44.16 39.89 43.69 39.26 43.06 38.82C42.44 38.38 41.69 38.14 40.92 38.14L40.92 37.21L39.07 37.21L39.07 38.14C38.08 38.14 37.14 38.53 36.45 39.23C35.75 39.92 35.36 40.87 35.36 41.85C35.36 42.83 35.75 43.78 36.45 44.47C37.14 45.17 38.08 45.56 39.07 45.56L39.07 49.27C38.26 49.27 37.57 48.75 37.32 48.03C37.28 47.91 37.22 47.8 37.14 47.71C37.06 47.62 36.96 47.54 36.85 47.48C36.74 47.43 36.62 47.4 36.49 47.39C36.37 47.38 36.24 47.4 36.13 47.44C36.01 47.48 35.9 47.55 35.81 47.63C35.72 47.71 35.65 47.82 35.59 47.93C35.54 48.04 35.51 48.16 35.51 48.29C35.5 48.41 35.53 48.53 35.57 48.65C35.83 49.37 36.3 50 36.93 50.44C37.55 50.88 38.3 51.12 39.07 51.12L39.07 52.05L40.92 52.05L40.92 51.12C41.91 51.12 42.85 50.73 43.55 50.04C44.24 49.34 44.63 48.4 44.63 47.41C44.63 46.43 44.24 45.49 43.55 44.79C42.85 44.1 41.91 43.7 40.92 43.7L40.92 40C41.31 40 41.68 40.11 41.99 40.34C42.31 40.56 42.54 40.87 42.67 41.23C42.75 41.46 42.92 41.65 43.15 41.76C43.26 41.81 43.37 41.84 43.5 41.85C43.62 41.85 43.74 41.84 43.85 41.8C43.97 41.76 44.08 41.69 44.17 41.61C44.26 41.53 44.33 41.43 44.38 41.32C44.44 41.21 44.47 41.09 44.47 40.97C44.48 40.85 44.46 40.73 44.42 40.61ZM39.07 40C38.58 40 38.1 40.19 37.76 40.54C37.41 40.89 37.21 41.36 37.21 41.85C37.21 42.34 37.41 42.81 37.76 43.16C38.1 43.51 38.58 43.7 39.07 43.7L39.07 40ZM40.92 49.27C41.41 49.27 41.89 49.07 42.23 48.72C42.58 48.38 42.78 47.91 42.78 47.41C42.78 46.92 42.58 46.45 42.23 46.1C41.89 45.75 41.41 45.56 40.92 45.56L40.92 49.27Z" fill="#FAFAFA" fill-opacity="1.000000" fill-rule="evenodd"/>
		<path id="Vector" d="M43.06 38.82C42.44 38.38 41.69 38.14 40.92 38.14L40.92 37.21L39.07 37.21L39.07 38.14C38.08 38.14 37.14 38.53 36.45 39.23C35.75 39.92 35.36 40.87 35.36 41.85C35.36 42.83 35.75 43.78 36.45 44.47C37.14 45.17 38.08 45.56 39.07 45.56L39.07 49.27C38.26 49.27 37.57 48.75 37.32 48.03C37.28 47.91 37.22 47.8 37.14 47.71C37.06 47.62 36.96 47.54 36.85 47.48C36.74 47.43 36.62 47.4 36.49 47.39C36.37 47.38 36.24 47.4 36.13 47.44C36.01 47.48 35.9 47.55 35.81 47.63C35.72 47.71 35.65 47.82 35.59 47.93C35.54 48.04 35.51 48.16 35.51 48.29C35.5 48.41 35.53 48.53 35.57 48.65C35.83 49.37 36.3 50 36.93 50.44C37.55 50.88 38.3 51.12 39.07 51.12L39.07 52.05L40.92 52.05L40.92 51.12C41.91 51.12 42.85 50.73 43.55 50.04C44.24 49.34 44.63 48.4 44.63 47.41C44.63 46.43 44.24 45.49 43.55 44.79C42.85 44.1 41.91 43.7 40.92 43.7L40.92 40C41.31 40 41.68 40.11 41.99 40.34C42.31 40.56 42.54 40.87 42.67 41.23C42.75 41.46 42.92 41.65 43.15 41.76C43.26 41.81 43.37 41.84 43.5 41.85C43.62 41.85 43.74 41.84 43.85 41.8C43.97 41.76 44.08 41.69 44.17 41.61C44.26 41.53 44.33 41.43 44.38 41.32C44.44 41.21 44.47 41.09 44.47 40.97C44.48 40.85 44.46 40.73 44.42 40.61C44.16 39.89 43.69 39.26 43.06 38.82ZM37.76 40.54C37.41 40.89 37.21 41.36 37.21 41.85C37.21 42.34 37.41 42.81 37.76 43.16C38.1 43.51 38.58 43.7 39.07 43.7L39.07 40C38.58 40 38.1 40.19 37.76 40.54ZM42.23 48.72C42.58 48.38 42.78 47.91 42.78 47.41C42.78 46.92 42.58 46.45 42.23 46.1C41.89 45.75 41.41 45.56 40.92 45.56L40.92 49.27C41.41 49.27 41.89 49.07 42.23 48.72Z" stroke="#FAFAFA" stroke-opacity="1.000000" stroke-width="1.000000"/>
		<path id="Vector" d="M29.94 25.73C32.21 24.62 35.95 23.3 40.03 23.3C44.03 23.3 47.67 24.57 49.93 25.67L50.06 25.73C50.74 26.06 51.29 26.38 51.68 26.64L48.25 31.65C56.15 39.72 62.25 56.68 40.03 56.68C17.81 56.68 23.75 40.03 31.71 31.65L28.31 26.64C28.57 26.47 28.91 26.27 29.3 26.06C29.5 25.95 29.71 25.85 29.94 25.74L29.94 25.73ZM46.05 31.58L48.79 27.57C46.24 27.76 43.21 28.36 40.29 29.2C38.2 29.81 35.88 29.71 33.74 29.32C33.2 29.22 32.66 29.1 32.13 28.96L33.91 31.58C37.72 32.94 42.24 32.94 46.05 31.58ZM32.84 33.16C37.3 34.89 42.67 34.89 47.13 33.16C49 35.12 50.55 37.36 51.76 39.78C53.01 42.34 53.69 44.9 53.58 47.1C53.47 49.23 52.64 51.04 50.73 52.39C48.74 53.8 45.39 54.83 40.03 54.83C34.67 54.83 31.3 53.82 29.29 52.43C27.37 51.09 26.52 49.3 26.4 47.2C26.28 45.02 26.95 42.48 28.2 39.91C29.39 37.45 31.05 35.09 32.84 33.16ZM31.77 26.94C32.51 27.16 33.29 27.35 34.07 27.49C36.07 27.86 38.07 27.91 39.77 27.42C41.76 26.84 43.78 26.39 45.83 26.06C44.12 25.54 42.13 25.16 40.03 25.16C36.84 25.16 33.86 26.05 31.77 26.94Z" fill="#FAFAFA" fill-opacity="1.000000" fill-rule="evenodd"/>
		<path id="Vector" d="M40.03 23.3C44.03 23.3 47.67 24.57 49.93 25.67L50.06 25.73C50.74 26.06 51.29 26.38 51.68 26.64L48.25 31.65C56.15 39.72 62.25 56.68 40.03 56.68C17.81 56.68 23.75 40.03 31.71 31.65L28.31 26.64C28.57 26.47 28.91 26.27 29.3 26.06C29.5 25.95 29.71 25.85 29.94 25.74L29.94 25.73C32.21 24.62 35.95 23.3 40.03 23.3ZM48.79 27.57C46.24 27.76 43.21 28.36 40.29 29.2C38.2 29.81 35.88 29.71 33.74 29.32C33.2 29.22 32.66 29.1 32.13 28.96L33.91 31.58C37.72 32.94 42.24 32.94 46.05 31.58L48.79 27.57ZM47.13 33.16C49 35.12 50.55 37.36 51.76 39.78C53.01 42.34 53.69 44.9 53.58 47.1C53.47 49.23 52.64 51.04 50.73 52.39C48.74 53.8 45.39 54.83 40.03 54.83C34.67 54.83 31.3 53.82 29.29 52.43C27.37 51.09 26.52 49.3 26.4 47.2C26.28 45.02 26.95 42.48 28.2 39.91C29.39 37.45 31.05 35.09 32.84 33.16C37.3 34.89 42.67 34.89 47.13 33.16ZM34.07 27.49C36.07 27.86 38.07 27.91 39.77 27.42C41.76 26.84 43.78 26.39 45.83 26.06C44.12 25.54 42.13 25.16 40.03 25.16C36.84 25.16 33.86 26.05 31.77 26.94C32.51 27.16 33.29 27.35 34.07 27.49Z" stroke="#FAFAFA" stroke-opacity="1.000000" stroke-width="1.000000"/>
	</g>
</svg>
