<svg width="80.005" height="80" fill="none" xmlns="http://www.w3.org/2000/svg"><defs><clipPath id="a"><path transform="translate(20 20)" fill="#fff" fill-opacity="0" d="M0 0h40v40H0z"/></clipPath></defs><path fill="none" d="M0 0h80v80H0z"/><path d="M77.96 27.42A39.888 39.888 0 0 0 61 5.95C53.27 1.19 43.88-1 34.2.43c-8.99 1.31-17.58 5.66-24.08 12.98C4.08 20.19.3 29.05.02 38.83c-.27 9.08 2.53 18.3 8.6 25.96 5.63 7.13 13.7 12.4 23.28 14.37 8.9 1.84 18.46.69 27.07-3.96 8-4.31 14.58-11.34 18.19-20.44a39.79 39.79 0 0 0 .8-27.34Zm-42.18-16.2c6.54-.97 13.44.28 19.49 4.02 5.62 3.47 10.11 8.85 12.34 15.61a28.91 28.91 0 0 1-.59 19.89A28.89 28.89 0 0 1 53.79 65.6a28.874 28.874 0 0 1-19.68 2.88 28.875 28.875 0 0 1-16.93-10.45 28.95 28.95 0 0 1-6.26-18.89c.19-6.6 2.61-13.17 7.35-18.48 4.39-4.94 10.47-8.42 17.51-9.44Z" fill="#2F2E30" fill-rule="evenodd" opacity=".3"/><circle cx="40" cy="40" r="29" fill="#000"/><path fill="none" d="M20 20h40v40H20z"/><g clip-path="url(#a)"><path d="M44.42 40.61a3.718 3.718 0 0 0-3.5-2.47v-.93h-1.85v.93c-.99 0-1.93.39-2.62 1.09-.7.69-1.09 1.64-1.09 2.62 0 .98.39 1.93 1.09 2.62.69.7 1.63 1.09 2.62 1.09v3.71c-.81 0-1.5-.52-1.75-1.24a.916.916 0 0 0-.18-.32c-.08-.09-.18-.17-.29-.23a1.06 1.06 0 0 0-.36-.09.938.938 0 0 0-.68.24c-.09.08-.16.19-.22.3-.05.11-.08.23-.08.36-.01.12.02.24.06.36a3.718 3.718 0 0 0 3.5 2.47v.93h1.85v-.93c.99 0 1.93-.39 2.63-1.08a3.74 3.74 0 0 0 1.08-2.63c0-.98-.39-1.92-1.08-2.62a3.75 3.75 0 0 0-2.63-1.09V40c.39 0 .76.11 1.07.34.32.22.55.53.68.89.08.23.25.42.48.53.11.05.22.08.35.09.12 0 .24-.01.35-.05.12-.04.23-.11.32-.19s.16-.18.21-.29a.73.73 0 0 0 .09-.35.898.898 0 0 0-.05-.36ZM39.07 40c-.49 0-.97.19-1.31.54-.35.35-.55.82-.55 1.31 0 .49.2.96.55 1.31.34.35.82.54 1.31.54V40Zm1.85 9.27c.49 0 .97-.2 1.31-.55.35-.34.55-.81.55-1.31 0-.49-.2-.96-.55-1.31-.34-.35-.82-.54-1.31-.54v3.71Z" fill="#FAFAFA" fill-rule="evenodd"/><path d="M43.06 38.82c-.62-.44-1.37-.68-2.14-.68v-.93h-1.85v.93c-.99 0-1.93.39-2.62 1.09-.7.69-1.09 1.64-1.09 2.62 0 .98.39 1.93 1.09 2.62.69.7 1.63 1.09 2.62 1.09v3.71c-.81 0-1.5-.52-1.75-1.24a.916.916 0 0 0-.18-.32c-.08-.09-.18-.17-.29-.23a1.06 1.06 0 0 0-.36-.09.938.938 0 0 0-.68.24c-.09.08-.16.19-.22.3-.05.11-.08.23-.08.36-.01.12.02.24.06.36a3.718 3.718 0 0 0 3.5 2.47v.93h1.85v-.93c.99 0 1.93-.39 2.63-1.08a3.74 3.74 0 0 0 1.08-2.63c0-.98-.39-1.92-1.08-2.62a3.75 3.75 0 0 0-2.63-1.09V40c.39 0 .76.11 1.07.34.32.22.55.53.68.89.08.23.25.42.48.53.11.05.22.08.35.09.12 0 .24-.01.35-.05.12-.04.23-.11.32-.19s.16-.18.21-.29a.73.73 0 0 0 .09-.35.898.898 0 0 0-.05-.36c-.26-.72-.73-1.35-1.36-1.79Zm-5.3 1.72c-.35.35-.55.82-.55 1.31 0 .49.2.96.55 1.31.34.35.82.54 1.31.54V40c-.49 0-.97.19-1.31.54Zm4.47 8.18c.35-.34.55-.81.55-1.31 0-.49-.2-.96-.55-1.31-.34-.35-.82-.54-1.31-.54v3.71c.49 0 .97-.2 1.31-.55Z" stroke="#FAFAFA"/><path d="M29.94 25.73c2.27-1.11 6.01-2.43 10.09-2.43 4 0 7.64 1.27 9.9 2.37l.13.06c.68.33 1.23.65 1.62.91l-3.43 5.01c7.9 8.07 14 25.03-8.22 25.03s-16.28-16.65-8.32-25.03l-3.4-5.01c.26-.17.6-.37.99-.58.2-.11.41-.21.64-.32v-.01Zm16.11 5.85 2.74-4.01c-2.55.19-5.58.79-8.5 1.63-2.09.61-4.41.51-6.55.12-.54-.1-1.08-.22-1.61-.36l1.78 2.62c3.81 1.36 8.33 1.36 12.14 0Zm-13.21 1.58c4.46 1.73 9.83 1.73 14.29 0 1.87 1.96 3.42 4.2 4.63 6.62 1.25 2.56 1.93 5.12 1.82 7.32-.11 2.13-.94 3.94-2.85 5.29-1.99 1.41-5.34 2.44-10.7 2.44-5.36 0-8.73-1.01-10.74-2.4-1.92-1.34-2.77-3.13-2.89-5.23-.12-2.18.55-4.72 1.8-7.29 1.19-2.46 2.85-4.82 4.64-6.75Zm-1.07-6.22c.74.22 1.52.41 2.3.55 2 .37 4 .42 5.7-.07 1.99-.58 4.01-1.03 6.06-1.36-1.71-.52-3.7-.9-5.8-.9-3.19 0-6.17.89-8.26 1.78Z" fill="#FAFAFA" fill-rule="evenodd"/><path d="M40.03 23.3c4 0 7.64 1.27 9.9 2.37l.13.06c.68.33 1.23.65 1.62.91l-3.43 5.01c7.9 8.07 14 25.03-8.22 25.03s-16.28-16.65-8.32-25.03l-3.4-5.01c.26-.17.6-.37.99-.58.2-.11.41-.21.64-.32v-.01c2.27-1.11 6.01-2.43 10.09-2.43Zm8.76 4.27c-2.55.19-5.58.79-8.5 1.63-2.09.61-4.41.51-6.55.12-.54-.1-1.08-.22-1.61-.36l1.78 2.62c3.81 1.36 8.33 1.36 12.14 0l2.74-4.01Zm-1.66 5.59c1.87 1.96 3.42 4.2 4.63 6.62 1.25 2.56 1.93 5.12 1.82 7.32-.11 2.13-.94 3.94-2.85 5.29-1.99 1.41-5.34 2.44-10.7 2.44-5.36 0-8.73-1.01-10.74-2.4-1.92-1.34-2.77-3.13-2.89-5.23-.12-2.18.55-4.72 1.8-7.29 1.19-2.46 2.85-4.82 4.64-6.75 4.46 1.73 9.83 1.73 14.29 0Zm-13.06-5.67c2 .37 4 .42 5.7-.07 1.99-.58 4.01-1.03 6.06-1.36-1.71-.52-3.7-.9-5.8-.9-3.19 0-6.17.89-8.26 1.78.74.22 1.52.41 2.3.55Z" stroke="#FAFAFA"/></g></svg>