<svg width="27" height="26" viewBox="0 0 27 26" fill="none" xmlns="http://www.w3.org/2000/svg">
<path d="M11.2742 5.41667C11.2742 4.22005 12.2442 3.25 13.4408 3.25C14.6375 3.25 15.6075 4.22005 15.6075 5.41667C18.1427 6.61543 19.8094 9.11543 19.9408 11.9167V15.1667C20.1062 16.5325 20.9103 17.7387 22.1075 18.4167H4.77417C5.97138 17.7387 6.7755 16.5325 6.94084 15.1667V11.9167C7.07232 9.11543 8.73899 6.61543 11.2742 5.41667" stroke="#4B465C" stroke-width="2" stroke-linecap="round" stroke-linejoin="round"/>
<path d="M11.2742 5.41667C11.2742 4.22005 12.2442 3.25 13.4408 3.25C14.6375 3.25 15.6075 4.22005 15.6075 5.41667C18.1427 6.61543 19.8094 9.11543 19.9408 11.9167V15.1667C20.1062 16.5325 20.9103 17.7387 22.1075 18.4167H4.77417C5.97138 17.7387 6.7755 16.5325 6.94084 15.1667V11.9167C7.07232 9.11543 8.73899 6.61543 11.2742 5.41667" stroke="white" stroke-opacity="0.2" stroke-width="2" stroke-linecap="round" stroke-linejoin="round"/>
<path d="M10.1909 18.4167V19.5C10.1909 21.2949 11.646 22.75 13.4409 22.75C15.2358 22.75 16.6909 21.2949 16.6909 19.5V18.4167" stroke="#4B465C" stroke-width="2" stroke-linecap="round" stroke-linejoin="round"/>
<path d="M10.1909 18.4167V19.5C10.1909 21.2949 11.646 22.75 13.4409 22.75C15.2358 22.75 16.6909 21.2949 16.6909 19.5V18.4167" stroke="white" stroke-opacity="0.2" stroke-width="2" stroke-linecap="round" stroke-linejoin="round"/>
</svg>
