<svg width="40" height="40" fill="none" xmlns="http://www.w3.org/2000/svg"><defs><clipPath id="a"><rect rx="20" width="40" height="40" fill="#fff" fill-opacity="0"/></clipPath></defs><rect rx="20" width="40" height="40" fill="#DB4444"/><g clip-path="url(#a)"><path d="M15.17 10.33c-.39-.45-1.11-.45-1.56.01l-2.78 2.78c-.83.83-1.07 2.06-.59 3.05A29.18 29.18 0 0 0 23.8 29.75c.99.48 2.22.24 3.05-.59l2.8-2.81c.46-.45.46-1.17.01-1.56l-3.92-3.37c-.41-.35-1.05-.3-1.46.11l-1.37 1.36c-.07.08-.16.12-.26.14-.1.02-.2 0-.29-.05A14.461 14.461 0 0 1 17 17.61a.422.422 0 0 1-.05-.29c.02-.1.06-.19.14-.26l1.36-1.36c.41-.41.46-1.05.1-1.47v.01l-3.38-3.91Z" stroke="#FFF" stroke-width="1.5" stroke-linejoin="round"/></g></svg>