<svg width="40.000000" height="40.000000" viewBox="0 0 40 40" fill="none" xmlns="http://www.w3.org/2000/svg" xmlns:xlink="http://www.w3.org/1999/xlink">
	<desc>
			Created with Pixso.
	</desc>
	<defs>
		<clipPath id="clip210_4438">
			<rect id="icons-phone" rx="20.000000" width="40.000000" height="40.000000" fill="white" fill-opacity="0"/>
		</clipPath>
	</defs>
	<rect id="icons-phone" rx="20.000000" width="40.000000" height="40.000000" fill="#DB4444" fill-opacity="1.000000"/>
	<g clip-path="url(#clip210_4438)">
		<path id="Vector" d="M15.17 10.33C14.78 9.88 14.06 9.88 13.61 10.34L10.83 13.12C10 13.95 9.76 15.18 10.24 16.17C13.1 22.1 17.88 26.88 23.8 29.75C24.79 30.23 26.02 29.99 26.85 29.16L29.65 26.35C30.11 25.9 30.11 25.18 29.66 24.79L25.74 21.42C25.33 21.07 24.69 21.12 24.28 21.53L22.91 22.89C22.84 22.97 22.75 23.01 22.65 23.03C22.55 23.05 22.45 23.03 22.36 22.98C20.13 21.7 18.28 19.85 17 17.61C16.95 17.52 16.93 17.42 16.95 17.32C16.97 17.22 17.01 17.13 17.09 17.06L18.45 15.7C18.86 15.29 18.91 14.65 18.55 14.23L18.55 14.24L15.17 10.33Z" stroke="#FFFFFF" stroke-opacity="1.000000" stroke-width="1.500000" stroke-linejoin="round"/>
	</g>
</svg>
