<svg width="24" height="24" fill="none" xmlns="http://www.w3.org/2000/svg"><path d="M19.82 9.18h-3.95c-.62 0-1.16-.4-1.34-.99l-1.2-3.87c-.4-1.31-2.27-1.31-2.67 0l-1.2 3.87c-.18.59-.72.99-1.34.99h-4c-1.33 0-1.91 1.7-.85 2.51l3.35 2.57c.47.35.66.96.49 1.52l-1.24 4.04c-.39 1.3 1.11 2.35 2.19 1.52l3.08-2.36c.51-.39 1.2-.39 1.71 0l3.06 2.34c1.08.83 2.59-.22 2.19-1.52l-1.25-4.05c-.18-.57.02-1.18.49-1.53l3.33-2.52c1.07-.81.5-2.52-.85-2.52Zm-5.71.99c.46.34 1.04.51 1.76.51h3.66l-3.1 2.34c-.54.41-.89.88-1.06 1.41-.17.52-.16 1.11.04 1.76l1.16 3.75-2.81-2.15c-.59-.45-1.18-.68-1.76-.68-.59 0-1.18.23-1.77.68L7.4 19.96l1.14-3.74c.2-.64.22-1.23.05-1.75-.17-.53-.52-.99-1.05-1.4l-3.12-2.39h3.7c.72 0 1.3-.17 1.76-.51.47-.34.8-.85 1.01-1.53L12 5.07l1.1 3.57c.21.68.54 1.19 1.01 1.53Z" fill="#FAFAFA" fill-rule="evenodd"/></svg>