<svg width="80.005" height="80" fill="none" xmlns="http://www.w3.org/2000/svg"><defs><clipPath id="a"><path transform="translate(20 20)" fill="#fff" fill-opacity="0" d="M0 0h40v40H0z"/></clipPath></defs><path fill="none" d="M0 0h80v80H0z"/><path d="M77.96 27.42A39.888 39.888 0 0 0 61 5.95C53.27 1.19 43.88-1 34.2.43c-8.99 1.31-17.58 5.66-24.08 12.98C4.08 20.19.3 29.05.02 38.83c-.27 9.08 2.53 18.3 8.6 25.96 5.63 7.13 13.7 12.4 23.28 14.37 8.9 1.84 18.46.69 27.07-3.96 8-4.31 14.58-11.34 18.19-20.44a39.79 39.79 0 0 0 .8-27.34Zm-42.18-16.2c6.54-.97 13.44.28 19.49 4.02 5.62 3.47 10.11 8.85 12.34 15.61a28.91 28.91 0 0 1-.59 19.89A28.89 28.89 0 0 1 53.79 65.6a28.874 28.874 0 0 1-19.68 2.88 28.875 28.875 0 0 1-16.93-10.45 28.95 28.95 0 0 1-6.26-18.89c.19-6.6 2.61-13.17 7.35-18.48 4.39-4.94 10.47-8.42 17.51-9.44Z" fill="#2F2E30" fill-rule="evenodd" opacity=".3"/><circle cx="40" cy="40" r="29" fill="#000"/><path fill="none" d="M20 20h40v40H20z"/><g clip-path="url(#a)" stroke-width="2"><path d="m47.48 25 .84 8.33S49.98 35 52.48 35c1.32 0 2.58-.48 3.57-1.35.1-.1.18-.22.22-.35.05-.14.06-.28.03-.42l-1.18-7.05c-.04-.23-.16-.45-.34-.6-.18-.15-.41-.23-.64-.23h-6.66Z" stroke="#FFF"/><path d="M48.32 33.33S46.65 35 44.15 35s-4.17-1.67-4.17-1.67V25h7.5l.84 8.33ZM39.98 33.33S38.32 35 35.82 35s-4.17-1.67-4.17-1.67l.83-8.33h7.5v8.33Z" stroke="#FAFAFA"/><path d="M25.83 25a.934.934 0 0 0-.64.23c-.19.15-.31.37-.35.6l-1.17 7.05c-.03.14-.02.28.03.42.04.13.12.26.22.35A5.36 5.36 0 0 0 27.48 35c2.5 0 4.17-1.67 4.17-1.67l.83-8.33h-6.65Z" stroke="#FAFAFA"/><path d="M25 35v16.66c0 .89.35 1.73.97 2.36.63.62 1.47.98 2.36.98h23.33c.89 0 1.73-.36 2.36-.98.62-.63.98-1.47.98-2.36V35" stroke="#FAFAFA"/><path d="M44.72 55V45c0-.89-.35-1.74-.98-2.36-.62-.63-1.47-.98-2.36-.98h-3.33c-.88 0-1.73.35-2.36.98-.62.62-.97 1.47-.97 2.36v10" stroke="#FAFAFA"/></g></svg>