<svg width="80.004883" height="80.000000" viewBox="0 0 80.0049 80" fill="none" xmlns="http://www.w3.org/2000/svg" xmlns:xlink="http://www.w3.org/1999/xlink">
	<desc>
			Created with Pixso.
	</desc>
	<defs>
		<clipPath id="clip95_1684">
			<rect id="icon:shop" width="40.000000" height="40.000000" transform="translate(20.000000 20.000000)" fill="white" fill-opacity="0"/>
		</clipPath>
	</defs>
	<rect id="Services" width="80.000000" height="80.000000" fill="#FFFFFF" fill-opacity="0"/>
	<g opacity="0.300000">
		<path id="Ellipse 6" d="M77.96 27.42C75.11 18.8 69.32 11.09 61 5.95C53.27 1.19 43.88 -1 34.2 0.43C25.21 1.74 16.62 6.09 10.12 13.41C4.08 20.19 0.3 29.05 0.02 38.83C-0.25 47.91 2.55 57.13 8.62 64.79C14.25 71.92 22.32 77.19 31.9 79.16C40.8 81 50.36 79.85 58.97 75.2C66.97 70.89 73.55 63.86 77.16 54.76C80.52 46.33 81.04 36.7 77.96 27.42ZM35.78 11.22C42.32 10.25 49.22 11.5 55.27 15.24C60.89 18.71 65.38 24.09 67.61 30.85C69.69 37.12 69.66 44.13 67.02 50.74C64.59 56.88 60.06 62.23 53.79 65.6C47.98 68.74 41.08 69.93 34.11 68.48C27.64 67.15 21.58 63.62 17.18 58.03C13.08 52.85 10.71 46.26 10.92 39.14C11.11 32.54 13.53 25.97 18.27 20.66C22.66 15.72 28.74 12.24 35.78 11.22Z" fill="#2F2E30" fill-opacity="1.000000" fill-rule="evenodd"/>
	</g>
	<circle id="Ellipse 5" cx="40.000000" cy="40.000000" r="29.000000" fill="#000000" fill-opacity="1.000000"/>
	<rect id="icon:shop" width="40.000000" height="40.000000" transform="translate(20.000000 20.000000)" fill="#FFFFFF" fill-opacity="0"/>
	<g clip-path="url(#clip95_1684)">
		<path id="Vector" d="M47.48 25L48.32 33.33C48.32 33.33 49.98 35 52.48 35C53.8 35 55.06 34.52 56.05 33.65C56.15 33.55 56.23 33.43 56.27 33.3C56.32 33.16 56.33 33.02 56.3 32.88L55.12 25.83C55.08 25.6 54.96 25.38 54.78 25.23C54.6 25.08 54.37 25 54.14 25L47.48 25Z" stroke="#FFFFFF" stroke-opacity="1.000000" stroke-width="2.000000"/>
		<path id="Vector" d="M48.32 33.33C48.32 33.33 46.65 35 44.15 35C41.65 35 39.98 33.33 39.98 33.33L39.98 25L47.48 25L48.32 33.33Z" stroke="#FAFAFA" stroke-opacity="1.000000" stroke-width="2.000000"/>
		<path id="Vector" d="M39.98 33.33C39.98 33.33 38.32 35 35.82 35C33.32 35 31.65 33.33 31.65 33.33L32.48 25L39.98 25L39.98 33.33Z" stroke="#FAFAFA" stroke-opacity="1.000000" stroke-width="2.000000"/>
		<path id="Vector" d="M25.83 25C25.59 24.99 25.37 25.08 25.19 25.23C25 25.38 24.88 25.6 24.84 25.83L23.67 32.88C23.64 33.02 23.65 33.16 23.7 33.3C23.74 33.43 23.82 33.56 23.92 33.65C24.47 34.14 25.69 35 27.48 35C29.98 35 31.65 33.33 31.65 33.33L32.48 25L32.48 25L25.83 25Z" stroke="#FAFAFA" stroke-opacity="1.000000" stroke-width="2.000000"/>
		<path id="Vector" d="M25 35L25 51.66C25 52.55 25.35 53.39 25.97 54.02C26.6 54.64 27.44 55 28.33 55L51.66 55C52.55 55 53.39 54.64 54.02 54.02C54.64 53.39 55 52.55 55 51.66L55 35" stroke="#FAFAFA" stroke-opacity="1.000000" stroke-width="2.000000"/>
		<path id="Vector" d="M44.72 55L44.72 45C44.72 44.11 44.37 43.26 43.74 42.64C43.12 42.01 42.27 41.66 41.38 41.66L38.05 41.66C37.17 41.66 36.32 42.01 35.69 42.64C35.07 43.26 34.72 44.11 34.72 45L34.72 55" stroke="#FAFAFA" stroke-opacity="1.000000" stroke-width="2.000000"/>
	</g>
</svg>
