<svg width="20" height="20" fill="none" xmlns="http://www.w3.org/2000/svg"><path d="M10 1.833a1.317 1.317 0 0 0-1.195.744L6.953 6.33l-4.143.602a1.333 1.333 0 0 0-.74 2.275l3 2.921-.708 4.127a1.333 1.333 0 0 0 1.933 1.407L10 15.713V1.833Z" fill="#FFAD33"/><path opacity=".25" d="M10 1.836c.25-.002.5.164.5.164s.587.208.695.442l1.852 3.914 4.143.628c.247.037.478.145.669.312.19.168.332.387.409.634.077.247.086.511.026.764-.06.252-.185.481-.364.662l-3 3.047.708 4.304c.043.256.015.519-.078.759-.094.24-.25.449-.451.601a1.287 1.287 0 0 1-1.404.107L10 16.142V1.836Z" fill="#000"/></svg>