<svg width="32.000000" height="32.000000" viewBox="0 0 32 32" fill="none" xmlns="http://www.w3.org/2000/svg" xmlns:xlink="http://www.w3.org/1999/xlink">
	<desc>
			Created with Pixso.
	</desc>
	<defs>
		<clipPath id="clip78_1585">
			<rect id="user" width="32.000000" height="32.000000" fill="white" fill-opacity="0"/>
		</clipPath>
	</defs>
	<rect id="user" width="32.000000" height="32.000000" fill="#FFFFFF" fill-opacity="0"/>
	<g clip-path="url(#clip78_1585)">
		<path id="Vector" d="M24 27L24 24.33C24 22.91 23.52 21.56 22.67 20.56C21.82 19.56 20.66 19 19.46 19L11.53 19C10.33 19 9.17 19.56 8.32 20.56C7.47 21.56 7 22.91 7 24.33L7 27" stroke="#FAFAFA" stroke-opacity="1.000000" stroke-width="1.500000" stroke-linejoin="round" stroke-linecap="round"/>
		<path id="Vector" d="M16.5 14C14.01 14 12 11.98 12 9.5C12 7.01 14.01 5 16.5 5C18.98 5 21 7.01 21 9.5C21 11.98 18.98 14 16.5 14Z" stroke="#FAFAFA" stroke-opacity="1.000000" stroke-width="1.500000" stroke-linejoin="round"/>
	</g>
</svg>
